<?xml version="1.0" encoding="UTF-8"?>
<svg version="1.1" xmlns="http://www.w3.org/2000/svg" width="1024" height="1024">
<path d="M0 0 C337.92 0 675.84 0 1024 0 C1024 337.92 1024 675.84 1024 1024 C686.08 1024 348.16 1024 0 1024 C0 686.08 0 348.16 0 0 Z " fill="#FEFEFE" transform="translate(0,0)"/>
<path d="M0 0 C1.74243385 -0.00435479 3.48486578 -0.00954048 5.22729492 -0.01548767 C9.93200078 -0.02880715 14.63662596 -0.02946418 19.34134698 -0.02692437 C23.28231639 -0.02584974 27.22326981 -0.03075062 31.16423577 -0.03552979 C40.46936612 -0.04660085 49.7744561 -0.04707609 59.07958984 -0.04101562 C68.64818539 -0.03497894 78.21663378 -0.04728464 87.78520423 -0.06858569 C96.02847356 -0.08625515 104.27169628 -0.09219461 112.51498383 -0.08894795 C117.42592163 -0.08714328 122.33675446 -0.08968914 127.24767494 -0.10366249 C131.86973004 -0.11632335 136.49155734 -0.11421941 141.11360931 -0.1012516 C142.7993115 -0.09890405 144.48503014 -0.10155426 146.17071342 -0.10987473 C164.87150451 -0.19544658 179.20255023 2.62572609 193.28393555 15.8684082 C204.98989455 28.34396313 206.13976968 43.77669742 206.05932617 59.9855957 C206.06475738 61.83832344 206.0718856 63.69104685 206.08056641 65.54376221 C206.09868399 70.53968299 206.09178034 75.53527055 206.07905006 80.53119659 C206.0688621 85.78081605 206.07833174 91.03040861 206.08459473 96.2800293 C206.09185434 105.0927437 206.08232781 113.90532363 206.06323242 122.71801758 C206.04146699 132.87975784 206.04851955 143.04117698 206.07053804 153.20290947 C206.08874022 161.95662098 206.09122687 170.71023631 206.08078337 179.46396065 C206.07457486 184.67945741 206.07363958 189.89480367 206.08692932 195.11029053 C206.09855757 200.0156112 206.09033572 204.92052131 206.06735229 209.82579803 C206.06210224 211.61673046 206.06351477 213.40769796 206.07240295 215.19861603 C206.1455871 231.45421743 203.61882062 245.33015207 192.25268555 257.7824707 C186.65698826 263.16499857 180.88356495 266.76322521 173.54174805 269.2746582 C172.8534705 269.52084145 172.16519295 269.76702469 171.4560585 270.02066803 C162.613373 272.83500452 153.89933594 272.71257102 144.73217773 272.69458008 C142.95195487 272.70193189 141.17173676 272.71052133 139.39152527 272.72024536 C134.58342893 272.74235506 129.7755045 272.74539729 124.96736431 272.74349785 C120.93949389 272.74337764 116.91165923 272.75196247 112.88379884 272.76027536 C103.37245917 272.77947219 93.86120724 272.78240713 84.34985352 272.77563477 C74.57101008 272.76899943 64.79254436 272.79184657 55.01377749 272.8289485 C46.58874059 272.85974234 38.16382457 272.87099498 29.73873258 272.86711168 C24.71981742 272.86505387 19.70119624 272.8703725 14.6823349 272.89500427 C9.95755476 272.91742907 5.23338431 272.91526419 0.50860023 272.89507675 C-1.21377483 272.89169414 -2.93619223 272.89663543 -4.65851021 272.91106033 C-22.18126954 273.04755585 -36.01258166 269.1538101 -49.20825195 256.9621582 C-60.778069 244.76473315 -61.90546224 231.48416387 -61.86230469 215.54296875 C-61.86801287 213.63994955 -61.87497887 211.73693377 -61.88310242 209.83392334 C-61.90100132 204.68293876 -61.89987133 199.53212484 -61.89416003 194.38111854 C-61.89106283 190.07222647 -61.89716669 185.76336694 -61.90319878 181.45447952 C-61.91723227 171.28359017 -61.91569307 161.11278484 -61.90429688 150.94189453 C-61.89282234 140.47008244 -61.90688292 129.99852667 -61.93369335 119.52674836 C-61.95589059 110.51751842 -61.9624785 101.5083687 -61.95661694 92.49911338 C-61.95325513 87.1265253 -61.95561054 81.75410141 -61.97286797 76.38153648 C-61.98839874 71.32609066 -61.98431372 66.27102266 -61.96556282 61.21559143 C-61.96189359 59.36779665 -61.96493641 57.51997349 -61.97544861 55.67220497 C-62.05354075 40.8020272 -60.13091207 28.24435078 -50.45825195 16.2746582 C-35.82357475 1.639981 -19.68501108 -0.03269341 0 0 Z " fill="#FEFDFC" transform="translate(224.458251953125,605.725341796875)"/>
<path d="M0 0 C1.77553229 -0.00379123 3.55106162 -0.00929785 5.32658386 -0.01637268 C10.11171897 -0.03023878 14.89649094 -0.01922061 19.68160558 -0.00266147 C24.71013822 0.01127624 29.73865163 0.00471916 34.76719666 0.00120544 C43.2074869 -0.00148957 51.64763437 0.01191864 60.08789062 0.03515625 C69.82131259 0.06177008 79.5544961 0.06350764 89.28794199 0.05176789 C98.68469777 0.04095872 108.08136798 0.04720121 117.47811699 0.06132317 C121.46226481 0.06705491 125.44634945 0.06702257 129.43049812 0.06225777 C134.1281104 0.05745705 138.82546422 0.0677168 143.52302742 0.08921242 C145.23858773 0.09473822 146.9541731 0.09528469 148.66973495 0.09025955 C166.7390687 0.0440006 181.25560366 3.2286108 194.71850586 16.02905273 C206.84267614 29.1256394 208.6113243 43.86441131 208.50927734 60.87719727 C208.51306827 62.69376035 208.51857464 64.51032052 208.52565002 66.32687378 C208.53951909 71.22350547 208.52849624 76.11978243 208.51193881 81.01639414 C208.49800599 86.16017281 208.50455755 91.30393261 208.5080719 96.44772339 C208.51076706 105.08052229 208.49735664 113.71318159 208.47412109 122.34594727 C208.44749893 132.3054663 208.44577226 142.26475234 208.45750946 152.22429478 C208.4683127 161.83569558 208.46208128 171.44701266 208.44795418 181.05840683 C208.44221815 185.13548656 208.44225818 189.21250454 208.44701958 193.28958511 C208.45181484 198.09471378 208.44158271 202.89958936 208.42006493 207.70466995 C208.4145321 209.46096442 208.41399927 211.21728339 208.41901779 212.97357941 C208.46141103 229.9461526 205.76022006 243.74376602 193.57006836 256.43920898 C180.67662852 268.44419331 166.41612314 270.10426892 149.48022461 270.01928711 C147.647201 270.0247185 145.81418176 270.03184682 143.98117065 270.04052734 C139.03896596 270.05864278 134.09709816 270.05174219 129.15488815 270.039011 C123.96132304 270.0288219 118.7677851 270.03829299 113.57421875 270.04455566 C104.85566069 270.05181495 96.13723855 270.04228961 87.41870117 270.02319336 C77.36602287 270.00142799 67.31366917 270.00848057 57.26099873 270.03049898 C48.6007044 270.04870209 39.9405073 270.05118736 31.2802 270.0407443 C26.12059401 270.03453631 20.96114016 270.03359908 15.80154419 270.04689026 C10.94875155 270.05851989 6.09637387 270.05029421 1.24362564 270.02731323 C-0.52795603 270.0220639 -2.29957315 270.02347443 -4.07114029 270.03236389 C-20.92114356 270.10906263 -33.85388477 267.08344596 -46.61743164 255.50170898 C-55.16442113 246.68481457 -59.14738443 235.83150547 -59.13287354 223.67866516 C-59.13584466 222.89740664 -59.13881578 222.11614812 -59.14187694 221.3112151 C-59.15053947 218.69672364 -59.15207012 216.0822781 -59.15356445 213.46777344 C-59.15819439 211.59165856 -59.16321929 209.71554461 -59.16860962 207.83943176 C-59.18171945 202.74417793 -59.18817592 197.64893727 -59.19262028 192.55366921 C-59.19555353 189.36836524 -59.19965884 186.18306485 -59.20412445 182.99776268 C-59.21779619 173.02597105 -59.2274642 163.05418762 -59.23132634 153.08238727 C-59.23580522 141.58221253 -59.25334662 130.08215676 -59.28232694 118.5820182 C-59.30396481 109.68586622 -59.31403176 100.78974766 -59.31536746 91.89356965 C-59.31641405 86.58360003 -59.32229085 81.27374228 -59.34018707 75.96380043 C-59.35670393 70.96593966 -59.3588057 65.96827443 -59.35004807 60.97039604 C-59.3492796 59.14110921 -59.35359511 57.31181171 -59.36350632 55.48255157 C-59.44605227 39.29146404 -57.25267984 26.89237713 -45.74243164 14.75170898 C-32.46596707 2.20544996 -17.52239693 -0.10760831 0 0 Z " fill="#FEFDFD" transform="translate(221.992431640625,144.498291015625)"/>
<path d="M0 0 C1.78508937 -0.00571174 3.57017508 -0.01267909 5.35525513 -0.02079773 C10.17555689 -0.03865483 14.99567587 -0.03757492 19.8160007 -0.03185534 C23.8516078 -0.02875287 27.88718032 -0.03486763 31.92278248 -0.04089409 C41.44838847 -0.05491307 50.97390473 -0.05339976 60.49951172 -0.04199219 C70.3022242 -0.03051165 80.10466307 -0.04459162 89.90733951 -0.07138866 C98.34761358 -0.09359115 106.78780204 -0.10017286 115.22810322 -0.09431225 C120.25861072 -0.09095259 125.28894285 -0.09329174 130.31942558 -0.11056328 C135.05152109 -0.1261032 139.78321314 -0.12199917 144.51529312 -0.10325813 C146.24376032 -0.09959178 147.97225788 -0.10262317 149.70069695 -0.11314392 C167.18461115 -0.2113754 180.91312687 3.89903565 193.84985352 16.01342773 C202.41005776 24.93820626 207.29316953 35.65681366 207.28999329 47.97276306 C207.29366997 48.7387998 207.29734666 49.50483654 207.30113477 50.29408652 C207.31215521 52.86321942 207.31601273 55.43231185 207.31982422 58.00146484 C207.32609032 59.84300871 207.33273725 61.68455131 207.33973694 63.52609253 C207.36076981 69.57785157 207.37114155 75.62961084 207.38110352 81.68139648 C207.38515196 83.76751786 207.38926891 85.8536391 207.3934536 87.93976021 C207.41250695 97.74550506 207.42673527 107.55124239 207.43506557 117.3570022 C207.44482594 128.65853195 207.47111354 139.95986521 207.51156646 151.26132578 C207.54178885 160.0063372 207.55654042 168.75129251 207.55984658 177.49635512 C207.56219091 182.71425666 207.57107027 187.93194834 207.59630775 193.14979362 C207.61969943 198.06561527 207.62377732 202.98109056 207.61354637 207.89695358 C207.61305352 209.69273472 207.61929928 211.48853355 207.63310242 213.2842617 C207.74997178 229.40179279 205.32343523 243.23475837 194.11157227 255.65405273 C184.47824702 264.86853775 172.44387352 269.73059926 159.16902161 269.67147827 C158.40773427 269.67600938 157.64644694 269.6805405 156.86209029 269.68520892 C154.33296442 269.69778225 151.80405584 269.69623715 149.27490234 269.69458008 C147.45247117 269.70056983 145.63004253 269.7073764 143.80761719 269.7149353 C138.87141141 269.73255897 133.93527504 269.73728921 128.99904084 269.73856688 C125.91000989 269.73999132 122.82099643 269.74426651 119.73196983 269.74956131 C108.94076803 269.76805095 98.14961555 269.77623343 87.35839844 269.7746582 C77.32345448 269.77345773 67.28872593 269.79454433 57.25383645 269.82614553 C48.61913829 269.85236147 39.98451025 269.86302324 31.34977263 269.86174738 C26.20124747 269.86123923 21.05291376 269.86684081 15.90442848 269.88810349 C11.05748112 269.90757514 6.21090608 269.90754967 1.36394501 269.89307022 C-0.40603242 269.89099192 -2.17603371 269.89562403 -3.94597054 269.90779114 C-19.11874595 270.00526382 -31.39173165 267.75815559 -43.85717773 258.40405273 C-44.50299805 257.92709961 -45.14881836 257.45014648 -45.81420898 256.95874023 C-52.49375045 251.19895504 -58.287708 240.03757229 -59.85717773 231.40405273 C-59.95699651 228.84457961 -60.00500111 226.3121643 -60.00434875 223.75268555 C-60.00802544 222.97777614 -60.01170213 222.20286673 -60.01549023 221.40447521 C-60.02651148 218.80536934 -60.03036832 216.20630347 -60.03417969 213.60717773 C-60.04044567 211.74430718 -60.04709259 209.88143788 -60.05409241 208.01856995 C-60.07512469 201.89707305 -60.08549619 195.77557593 -60.09545898 189.65405273 C-60.09950729 187.5443826 -60.10362424 185.43471259 -60.10780907 183.32504272 C-60.1268614 173.40984303 -60.14109057 163.49465078 -60.14942104 153.5794363 C-60.15918442 142.14828643 -60.18548037 130.71733067 -60.22592193 119.28624916 C-60.25613084 110.4427404 -60.27089457 101.59928711 -60.27420205 92.75572777 C-60.27654769 87.47805543 -60.28544449 82.20059044 -60.31066322 76.92297363 C-60.33403156 71.9521642 -60.33814204 66.98169733 -60.32790184 62.01084709 C-60.32740844 60.19368281 -60.33367053 58.37650116 -60.34745789 56.55938911 C-60.46238155 40.50502424 -57.84567797 27.11767568 -46.53295898 14.89233398 C-32.9752359 2.01568961 -17.96781391 -0.05216535 0 0 Z " fill="#FEFDFD" transform="translate(672.857177734375,144.595947265625)"/>
<path d="M0 0 C0.95722961 -0.00553894 1.91445923 -0.01107788 2.9006958 -0.01678467 C20.43859347 -0.09083182 37.49295894 0.96701234 54.625 4.9375 C55.76710938 5.19877686 56.90921875 5.46005371 58.0859375 5.72924805 C86.09192471 12.33417569 111.49212322 22.84574974 132.25 43.25 C132.99636719 43.98347656 133.74273438 44.71695313 134.51171875 45.47265625 C146.3219233 57.8187514 155.65872831 74.19952416 159.609375 90.8125 C160.28978075 93.40136089 161.224691 95.77957045 162.25 98.25 C164.75625907 105.49030398 165.5053272 111.82760335 162.5625 119 C159.54692774 125.07346835 155.58678389 128.80200933 149.25 131.25 C145.16601229 131.69432578 141.10132998 131.65886502 136.99659729 131.63768005 C135.75092623 131.64306559 134.50525517 131.64845113 133.22183651 131.65399987 C129.77125937 131.66582406 126.32116569 131.6642115 122.87060773 131.65683305 C119.14659534 131.65210247 115.42263472 131.66461024 111.69863892 131.67485046 C104.40585784 131.69204585 97.11316289 131.69287697 89.82036681 131.68763756 C83.89283368 131.68359608 77.96532602 131.68503916 72.03779411 131.69038582 C71.19414293 131.69113424 70.35049176 131.69188266 69.48127539 131.69265376 C67.76739971 131.69418524 66.05352403 131.69572359 64.33964836 131.69726873 C48.26762202 131.7109964 32.19564436 131.70555417 16.12361913 131.69408352 C1.4205667 131.68415038 -13.2823599 131.69709272 -27.98539292 131.72101771 C-43.08372546 131.74540079 -58.18199938 131.75501856 -73.28035122 131.74836498 C-81.75644627 131.74487106 -90.23244454 131.74711624 -98.7085247 131.76461601 C-105.92385783 131.77932809 -113.13902601 131.77998649 -120.35435586 131.7625451 C-124.03527744 131.75402453 -127.71590423 131.75191103 -131.39681053 131.76719666 C-135.38798457 131.78356548 -139.37844551 131.76891564 -143.36961365 131.75120544 C-144.53187027 131.76081045 -145.69412689 131.77041546 -146.89160341 131.78031152 C-154.30269188 131.71250466 -158.81899512 130.76721489 -164.45703125 125.72265625 C-169.49944561 119.29045985 -170.57222634 114.27698462 -169.75 106.25 C-164.0875371 76.232512 -148.77713522 48.30962449 -123.80859375 30.10546875 C-86.74146638 5.11688583 -43.59169836 0.16564013 0 0 Z " fill="#FD5606" transform="translate(702.75,513.75)"/>
<path d="M0 0 C1.74243385 -0.00435479 3.48486578 -0.00954048 5.22729492 -0.01548767 C9.93200078 -0.02880715 14.63662596 -0.02946418 19.34134698 -0.02692437 C23.28231639 -0.02584974 27.22326981 -0.03075062 31.16423577 -0.03552979 C40.46936612 -0.04660085 49.7744561 -0.04707609 59.07958984 -0.04101562 C68.64818539 -0.03497894 78.21663378 -0.04728464 87.78520423 -0.06858569 C96.02847356 -0.08625515 104.27169628 -0.09219461 112.51498383 -0.08894795 C117.42592163 -0.08714328 122.33675446 -0.08968914 127.24767494 -0.10366249 C131.86973004 -0.11632335 136.49155734 -0.11421941 141.11360931 -0.1012516 C142.7993115 -0.09890405 144.48503014 -0.10155426 146.17071342 -0.10987473 C164.87150451 -0.19544658 179.20255023 2.62572609 193.28393555 15.8684082 C204.98989455 28.34396313 206.13976968 43.77669742 206.05932617 59.9855957 C206.06475738 61.83832344 206.0718856 63.69104685 206.08056641 65.54376221 C206.09868399 70.53968299 206.09178034 75.53527055 206.07905006 80.53119659 C206.0688621 85.78081605 206.07833174 91.03040861 206.08459473 96.2800293 C206.09185434 105.0927437 206.08232781 113.90532363 206.06323242 122.71801758 C206.04146699 132.87975784 206.04851955 143.04117698 206.07053804 153.20290947 C206.08874022 161.95662098 206.09122687 170.71023631 206.08078337 179.46396065 C206.07457486 184.67945741 206.07363958 189.89480367 206.08692932 195.11029053 C206.09855757 200.0156112 206.09033572 204.92052131 206.06735229 209.82579803 C206.06210224 211.61673046 206.06351477 213.40769796 206.07240295 215.19861603 C206.1455871 231.45421743 203.61882062 245.33015207 192.25268555 257.7824707 C186.65698826 263.16499857 180.88356495 266.76322521 173.54174805 269.2746582 C172.8534705 269.52084145 172.16519295 269.76702469 171.4560585 270.02066803 C162.613373 272.83500452 153.89933594 272.71257102 144.73217773 272.69458008 C142.95195487 272.70193189 141.17173676 272.71052133 139.39152527 272.72024536 C134.58342893 272.74235506 129.7755045 272.74539729 124.96736431 272.74349785 C120.93949389 272.74337764 116.91165923 272.75196247 112.88379884 272.76027536 C103.37245917 272.77947219 93.86120724 272.78240713 84.34985352 272.77563477 C74.57101008 272.76899943 64.79254436 272.79184657 55.01377749 272.8289485 C46.58874059 272.85974234 38.16382457 272.87099498 29.73873258 272.86711168 C24.71981742 272.86505387 19.70119624 272.8703725 14.6823349 272.89500427 C9.95755476 272.91742907 5.23338431 272.91526419 0.50860023 272.89507675 C-1.21377483 272.89169414 -2.93619223 272.89663543 -4.65851021 272.91106033 C-22.18126954 273.04755585 -36.01258166 269.1538101 -49.20825195 256.9621582 C-60.778069 244.76473315 -61.90546224 231.48416387 -61.86230469 215.54296875 C-61.86801287 213.63994955 -61.87497887 211.73693377 -61.88310242 209.83392334 C-61.90100132 204.68293876 -61.89987133 199.53212484 -61.89416003 194.38111854 C-61.89106283 190.07222647 -61.89716669 185.76336694 -61.90319878 181.45447952 C-61.91723227 171.28359017 -61.91569307 161.11278484 -61.90429688 150.94189453 C-61.89282234 140.47008244 -61.90688292 129.99852667 -61.93369335 119.52674836 C-61.95589059 110.51751842 -61.9624785 101.5083687 -61.95661694 92.49911338 C-61.95325513 87.1265253 -61.95561054 81.75410141 -61.97286797 76.38153648 C-61.98839874 71.32609066 -61.98431372 66.27102266 -61.96556282 61.21559143 C-61.96189359 59.36779665 -61.96493641 57.51997349 -61.97544861 55.67220497 C-62.05354075 40.8020272 -60.13091207 28.24435078 -50.45825195 16.2746582 C-35.82357475 1.639981 -19.68501108 -0.03269341 0 0 Z M-22.45825195 44.2746582 C-23.63300227 47.79890916 -23.59312764 50.58664506 -23.60542297 54.30792236 C-23.60909966 55.02833544 -23.61277635 55.74874853 -23.61656445 56.49099231 C-23.62760086 58.91140114 -23.63144505 61.33176704 -23.63525391 63.75219727 C-23.64151858 65.48510372 -23.64816538 67.21800884 -23.65516663 68.95091248 C-23.67620846 74.64735987 -23.68656892 80.34380753 -23.6965332 86.0402832 C-23.70058067 88.00116744 -23.70469759 89.96205154 -23.70888329 91.92293549 C-23.72793498 101.13493442 -23.74216623 110.34692533 -23.75049525 119.55894017 C-23.76026894 130.19324933 -23.78659201 140.82735041 -23.82699615 151.46158624 C-23.85715313 159.68079819 -23.87196373 167.89995048 -23.87527627 176.11921668 C-23.87762718 181.02842675 -23.8865931 185.93741452 -23.91173744 190.84656525 C-23.93501591 195.46606161 -23.93925231 200.08518927 -23.92897606 204.70472908 C-23.92848054 206.3982141 -23.93480584 208.09171725 -23.9485321 209.78514671 C-23.96625529 212.1016913 -23.95914398 214.41691324 -23.94599915 216.73345947 C-23.9483875 218.02836933 -23.95077585 219.32327919 -23.95323658 220.65742874 C-23.2781036 225.59113938 -21.70460741 229.51096162 -17.64864922 232.69544411 C-14.527391 233.52080889 -11.64127388 233.53357211 -8.41189575 233.54208374 C-7.34731213 233.54888041 -7.34731213 233.54888041 -6.26122177 233.55581439 C-3.88298466 233.56847497 -1.50497607 233.56683697 0.87329102 233.56518555 C2.57841283 233.57116976 4.28353193 233.57797506 5.98864746 233.58554077 C10.6209116 233.60321869 15.25310187 233.6078969 19.88539648 233.60917234 C23.75221034 233.61107118 27.61900698 233.61842853 31.48581421 233.62551653 C40.60879712 233.64180482 49.73174055 233.64668508 58.85473633 233.64526367 C68.26603702 233.64406203 77.67710846 233.66516728 87.08835113 233.696751 C95.16829981 233.72290082 103.24817355 233.73363152 111.32816422 233.73235285 C116.15403749 233.73184285 120.97970705 233.73754733 125.80553818 233.75870895 C130.34462838 233.7780696 134.88332008 233.77823077 139.42242432 233.76367569 C141.08729763 233.7615838 142.75219575 233.76631113 144.41702652 233.77839661 C146.69229412 233.7938422 148.96618642 233.7845471 151.24142456 233.76913452 C152.51383436 233.77022406 153.78624416 233.77131359 155.09721184 233.77243614 C159.80908291 233.09151269 163.01001013 231.3046428 165.90003395 227.47454643 C166.82558319 224.30163051 166.80066149 221.38091033 166.80917358 218.07644653 C166.81597025 216.9873616 166.81597025 216.9873616 166.82290423 215.87627494 C166.83556707 213.44276122 166.83392667 211.00947076 166.83227539 208.57592773 C166.83825946 206.83139762 166.84506473 205.08687016 166.85263062 203.34234619 C166.87030996 198.60264779 166.8749868 193.86302159 166.87626219 189.1232934 C166.87816089 185.1670079 166.88551808 181.21073924 166.89260638 177.25446022 C166.9088952 167.92052666 166.91377487 158.58663168 166.91235352 149.25268555 C166.91115186 139.62326073 166.9322574 129.99405997 166.96384084 120.36469185 C166.98998922 112.09790845 167.00072142 103.83119829 166.9994427 95.56437385 C166.99893265 90.62671973 167.00463942 85.68926471 167.0257988 80.75165176 C167.04515701 76.10750514 167.04532225 71.46374803 167.03076553 66.81958771 C167.02867334 65.11601315 167.03340274 63.41241437 167.04548645 61.70888138 C167.06092766 59.38107535 167.05163962 57.0546143 167.03622437 54.72683716 C167.0373139 53.42492998 167.03840343 52.1230228 167.03952599 50.78166389 C166.45161395 46.63963448 165.15950154 44.50253871 162.54174805 41.2746582 C158.83472218 38.80330762 156.96828546 39.01650188 152.53971863 39.00050354 C151.82268353 38.99526686 151.10564844 38.99003018 150.36688501 38.98463482 C147.95791289 38.96960169 145.54915257 38.96892895 143.14013672 38.96826172 C141.41545756 38.9606424 139.69078181 38.9522153 137.96611023 38.94303894 C133.27594543 38.92106335 128.58584584 38.91229082 123.89563537 38.9072125 C120.9659871 38.90357224 118.03635599 38.89733389 115.10671425 38.89021111 C104.88770419 38.86570505 94.66874497 38.85266241 84.44970703 38.84912109 C74.92193512 38.8454859 65.39448537 38.81559468 55.86681193 38.77371651 C47.68921941 38.73903176 39.51173372 38.72357296 31.33406812 38.72287506 C26.44888246 38.72208156 21.56402474 38.71330974 16.67891502 38.6848774 C12.08314597 38.65872814 7.48797745 38.65647385 2.89216805 38.67253304 C1.20632494 38.6743501 -0.47955243 38.66763355 -2.16532135 38.65171432 C-4.46934947 38.63128504 -6.77127021 38.64178416 -9.07527161 38.65992737 C-11.00795757 38.65691038 -11.00795757 38.65691038 -12.97968769 38.65383244 C-17.59012117 39.47666499 -19.19889996 40.95513862 -22.45825195 44.2746582 Z " fill="#A52D03" transform="translate(224.458251953125,605.725341796875)"/>
<path d="M0 0 C1.78508937 -0.00571174 3.57017508 -0.01267909 5.35525513 -0.02079773 C10.17555689 -0.03865483 14.99567587 -0.03757492 19.8160007 -0.03185534 C23.8516078 -0.02875287 27.88718032 -0.03486763 31.92278248 -0.04089409 C41.44838847 -0.05491307 50.97390473 -0.05339976 60.49951172 -0.04199219 C70.3022242 -0.03051165 80.10466307 -0.04459162 89.90733951 -0.07138866 C98.34761358 -0.09359115 106.78780204 -0.10017286 115.22810322 -0.09431225 C120.25861072 -0.09095259 125.28894285 -0.09329174 130.31942558 -0.11056328 C135.05152109 -0.1261032 139.78321314 -0.12199917 144.51529312 -0.10325813 C146.24376032 -0.09959178 147.97225788 -0.10262317 149.70069695 -0.11314392 C167.18461115 -0.2113754 180.91312687 3.89903565 193.84985352 16.01342773 C202.41005776 24.93820626 207.29316953 35.65681366 207.28999329 47.97276306 C207.29366997 48.7387998 207.29734666 49.50483654 207.30113477 50.29408652 C207.31215521 52.86321942 207.31601273 55.43231185 207.31982422 58.00146484 C207.32609032 59.84300871 207.33273725 61.68455131 207.33973694 63.52609253 C207.36076981 69.57785157 207.37114155 75.62961084 207.38110352 81.68139648 C207.38515196 83.76751786 207.38926891 85.8536391 207.3934536 87.93976021 C207.41250695 97.74550506 207.42673527 107.55124239 207.43506557 117.3570022 C207.44482594 128.65853195 207.47111354 139.95986521 207.51156646 151.26132578 C207.54178885 160.0063372 207.55654042 168.75129251 207.55984658 177.49635512 C207.56219091 182.71425666 207.57107027 187.93194834 207.59630775 193.14979362 C207.61969943 198.06561527 207.62377732 202.98109056 207.61354637 207.89695358 C207.61305352 209.69273472 207.61929928 211.48853355 207.63310242 213.2842617 C207.74997178 229.40179279 205.32343523 243.23475837 194.11157227 255.65405273 C184.47824702 264.86853775 172.44387352 269.73059926 159.16902161 269.67147827 C158.40773427 269.67600938 157.64644694 269.6805405 156.86209029 269.68520892 C154.33296442 269.69778225 151.80405584 269.69623715 149.27490234 269.69458008 C147.45247117 269.70056983 145.63004253 269.7073764 143.80761719 269.7149353 C138.87141141 269.73255897 133.93527504 269.73728921 128.99904084 269.73856688 C125.91000989 269.73999132 122.82099643 269.74426651 119.73196983 269.74956131 C108.94076803 269.76805095 98.14961555 269.77623343 87.35839844 269.7746582 C77.32345448 269.77345773 67.28872593 269.79454433 57.25383645 269.82614553 C48.61913829 269.85236147 39.98451025 269.86302324 31.34977263 269.86174738 C26.20124747 269.86123923 21.05291376 269.86684081 15.90442848 269.88810349 C11.05748112 269.90757514 6.21090608 269.90754967 1.36394501 269.89307022 C-0.40603242 269.89099192 -2.17603371 269.89562403 -3.94597054 269.90779114 C-19.11874595 270.00526382 -31.39173165 267.75815559 -43.85717773 258.40405273 C-44.50299805 257.92709961 -45.14881836 257.45014648 -45.81420898 256.95874023 C-52.49375045 251.19895504 -58.287708 240.03757229 -59.85717773 231.40405273 C-59.95699651 228.84457961 -60.00500111 226.3121643 -60.00434875 223.75268555 C-60.00802544 222.97777614 -60.01170213 222.20286673 -60.01549023 221.40447521 C-60.02651148 218.80536934 -60.03036832 216.20630347 -60.03417969 213.60717773 C-60.04044567 211.74430718 -60.04709259 209.88143788 -60.05409241 208.01856995 C-60.07512469 201.89707305 -60.08549619 195.77557593 -60.09545898 189.65405273 C-60.09950729 187.5443826 -60.10362424 185.43471259 -60.10780907 183.32504272 C-60.1268614 173.40984303 -60.14109057 163.49465078 -60.14942104 153.5794363 C-60.15918442 142.14828643 -60.18548037 130.71733067 -60.22592193 119.28624916 C-60.25613084 110.4427404 -60.27089457 101.59928711 -60.27420205 92.75572777 C-60.27654769 87.47805543 -60.28544449 82.20059044 -60.31066322 76.92297363 C-60.33403156 71.9521642 -60.33814204 66.98169733 -60.32790184 62.01084709 C-60.32740844 60.19368281 -60.33367053 58.37650116 -60.34745789 56.55938911 C-60.46238155 40.50502424 -57.84567797 27.11767568 -46.53295898 14.89233398 C-32.9752359 2.01568961 -17.96781391 -0.05216535 0 0 Z M-19.85717773 44.40405273 C-21.33832789 47.36635305 -20.99003426 50.02338139 -20.99761963 53.33052063 C-21.00059075 54.05149042 -21.00356187 54.77246021 -21.00662303 55.51527756 C-21.01532995 57.94346487 -21.01681995 60.37160299 -21.01831055 62.79980469 C-21.02293733 64.53580837 -21.0279618 66.27181103 -21.03335571 68.0078125 C-21.04649558 72.73308531 -21.05292781 77.4583439 -21.05736637 82.18363214 C-21.06029466 85.13419999 -21.06439901 88.08476393 -21.06887054 91.03532982 C-21.08254992 100.2622807 -21.09221431 109.48922268 -21.09607244 118.71618301 C-21.10055383 129.37595438 -21.11810364 140.03559757 -21.14707303 150.69532996 C-21.16867409 158.92892862 -21.17877588 167.16249117 -21.18011355 175.39611787 C-21.18116275 180.31641352 -21.18709489 185.23658875 -21.20493317 190.15685463 C-21.22138652 194.78531579 -21.22358269 199.41356565 -21.21479416 204.04204559 C-21.2140223 205.74120079 -21.21838602 207.44036722 -21.22825241 209.13949394 C-21.24093044 211.45879344 -21.23511815 213.77733991 -21.22467041 216.09663391 C-21.22613697 217.39468617 -21.22760353 218.69273844 -21.22911453 220.03012562 C-20.72909291 224.56594064 -19.25729342 226.96933445 -16.11244774 230.19190216 C-12.92633273 231.90435838 -10.38195154 231.78794044 -6.77285767 231.79846191 C-5.70214871 231.80759857 -5.70214871 231.80759857 -4.60980928 231.8169198 C-2.21765715 231.83357051 0.17396389 231.82877119 2.56616211 231.82397461 C4.28113865 231.8313138 5.99611024 231.83989959 7.71107483 231.84963989 C12.37022679 231.87188154 17.02920203 231.87478522 21.68839979 231.87289238 C25.57758967 231.87277279 29.46674195 231.88133231 33.35592139 231.8896699 C42.53165858 231.90891387 51.70730479 231.91178432 60.88305664 231.9050293 C70.3489494 231.89838887 79.81445245 231.92125061 89.28026617 231.95834303 C97.40693547 231.98903245 105.53347938 232.00040084 113.66020548 231.99650621 C118.51406182 231.99443777 123.367615 231.99993253 128.22141647 232.0243988 C132.78685364 232.04665064 137.35165711 232.04480129 141.91709709 232.02447128 C143.59164483 232.02105834 145.2662351 232.02616263 146.94072533 232.04045486 C149.22940062 232.05863966 151.51592435 232.04590744 153.80453491 232.0255127 C155.72421113 232.02658146 155.72421113 232.02658146 157.68266869 232.02767181 C162.25024351 231.20446361 163.87696708 229.64771006 167.14282227 226.40405273 C168.6270076 223.43568206 168.28255165 220.75996533 168.29672241 217.4463501 C168.30110467 216.72200232 168.30548692 215.99765455 168.31000197 215.25135684 C168.32341133 212.811693 168.32957361 210.3720653 168.33569336 207.93237305 C168.34359266 206.1881392 168.3518615 204.44390699 168.36047363 202.69967651 C168.38671415 196.96052618 168.4020035 191.22136847 168.41625977 185.48217773 C168.42161865 183.50796249 168.42699616 181.5337473 168.43239212 179.55953217 C168.45402401 171.34826414 168.47276128 163.13699809 168.48401451 154.92570877 C168.50025685 143.15058231 168.53343803 131.37578569 168.59041536 119.60078359 C168.629095 111.32555866 168.64864487 103.05042202 168.65393507 94.77510905 C168.65759131 89.83064853 168.66964134 84.88653963 168.70203781 79.94217682 C168.73208358 75.2898113 168.7384428 70.6380108 168.72665405 65.985569 C168.72643302 64.2787554 168.73476245 62.57191585 168.75230789 60.86519241 C168.77497972 58.53267771 168.76671609 56.20221531 168.75082397 53.86968994 C168.75413412 52.56518513 168.75744427 51.26068031 168.76085472 49.91664505 C167.94451936 45.27699662 166.48389738 43.67753432 163.14282227 40.40405273 C159.64992911 39.23975502 156.90409933 39.2662987 153.21672058 39.25015259 C152.1534186 39.24357921 152.1534186 39.24357921 151.06863576 39.23687303 C148.68735605 39.22349161 146.30611334 39.2173077 143.92480469 39.21118164 C142.21983167 39.20328025 140.51486033 39.19501128 138.80989075 39.18640137 C133.2060404 39.1601889 127.60218261 39.14487605 121.99829102 39.13061523 C120.06957812 39.12525553 118.14086528 39.11987802 116.21215248 39.11448288 C108.19042578 39.09285668 100.1687011 39.07411915 92.14695263 39.06286049 C80.64766941 39.04661505 69.14872374 39.01341987 57.64956778 38.95645964 C49.56540392 38.91777893 41.48133042 38.89823011 33.39707643 38.89293993 C28.56776336 38.88928435 23.73881037 38.87724096 18.9095974 38.84483719 C14.36637791 38.81478885 9.823737 38.80843307 5.28043938 38.82022095 C3.61393834 38.82044194 1.9474107 38.81211525 0.28100204 38.79456711 C-1.99673685 38.77188873 -4.27237514 38.78016151 -6.55012512 38.79605103 C-7.82383374 38.79274088 -9.09754236 38.78943073 -10.40984821 38.78602028 C-14.97005406 39.60356766 -16.59604695 41.16646153 -19.85717773 44.40405273 Z " fill="#A52D03" transform="translate(672.857177734375,144.595947265625)"/>
<path d="M0 0 C1.77553229 -0.00379123 3.55106162 -0.00929785 5.32658386 -0.01637268 C10.11171897 -0.03023878 14.89649094 -0.01922061 19.68160558 -0.00266147 C24.71013822 0.01127624 29.73865163 0.00471916 34.76719666 0.00120544 C43.2074869 -0.00148957 51.64763437 0.01191864 60.08789062 0.03515625 C69.82131259 0.06177008 79.5544961 0.06350764 89.28794199 0.05176789 C98.68469777 0.04095872 108.08136798 0.04720121 117.47811699 0.06132317 C121.46226481 0.06705491 125.44634945 0.06702257 129.43049812 0.06225777 C134.1281104 0.05745705 138.82546422 0.0677168 143.52302742 0.08921242 C145.23858773 0.09473822 146.9541731 0.09528469 148.66973495 0.09025955 C166.7390687 0.0440006 181.25560366 3.2286108 194.71850586 16.02905273 C206.84267614 29.1256394 208.6113243 43.86441131 208.50927734 60.87719727 C208.51306827 62.69376035 208.51857464 64.51032052 208.52565002 66.32687378 C208.53951909 71.22350547 208.52849624 76.11978243 208.51193881 81.01639414 C208.49800599 86.16017281 208.50455755 91.30393261 208.5080719 96.44772339 C208.51076706 105.08052229 208.49735664 113.71318159 208.47412109 122.34594727 C208.44749893 132.3054663 208.44577226 142.26475234 208.45750946 152.22429478 C208.4683127 161.83569558 208.46208128 171.44701266 208.44795418 181.05840683 C208.44221815 185.13548656 208.44225818 189.21250454 208.44701958 193.28958511 C208.45181484 198.09471378 208.44158271 202.89958936 208.42006493 207.70466995 C208.4145321 209.46096442 208.41399927 211.21728339 208.41901779 212.97357941 C208.46141103 229.9461526 205.76022006 243.74376602 193.57006836 256.43920898 C180.67662852 268.44419331 166.41612314 270.10426892 149.48022461 270.01928711 C147.647201 270.0247185 145.81418176 270.03184682 143.98117065 270.04052734 C139.03896596 270.05864278 134.09709816 270.05174219 129.15488815 270.039011 C123.96132304 270.0288219 118.7677851 270.03829299 113.57421875 270.04455566 C104.85566069 270.05181495 96.13723855 270.04228961 87.41870117 270.02319336 C77.36602287 270.00142799 67.31366917 270.00848057 57.26099873 270.03049898 C48.6007044 270.04870209 39.9405073 270.05118736 31.2802 270.0407443 C26.12059401 270.03453631 20.96114016 270.03359908 15.80154419 270.04689026 C10.94875155 270.05851989 6.09637387 270.05029421 1.24362564 270.02731323 C-0.52795603 270.0220639 -2.29957315 270.02347443 -4.07114029 270.03236389 C-20.92114356 270.10906263 -33.85388477 267.08344596 -46.61743164 255.50170898 C-55.16442113 246.68481457 -59.14738443 235.83150547 -59.13287354 223.67866516 C-59.13584466 222.89740664 -59.13881578 222.11614812 -59.14187694 221.3112151 C-59.15053947 218.69672364 -59.15207012 216.0822781 -59.15356445 213.46777344 C-59.15819439 211.59165856 -59.16321929 209.71554461 -59.16860962 207.83943176 C-59.18171945 202.74417793 -59.18817592 197.64893727 -59.19262028 192.55366921 C-59.19555353 189.36836524 -59.19965884 186.18306485 -59.20412445 182.99776268 C-59.21779619 173.02597105 -59.2274642 163.05418762 -59.23132634 153.08238727 C-59.23580522 141.58221253 -59.25334662 130.08215676 -59.28232694 118.5820182 C-59.30396481 109.68586622 -59.31403176 100.78974766 -59.31536746 91.89356965 C-59.31641405 86.58360003 -59.32229085 81.27374228 -59.34018707 75.96380043 C-59.35670393 70.96593966 -59.3588057 65.96827443 -59.35004807 60.97039604 C-59.3492796 59.14110921 -59.35359511 57.31181171 -59.36350632 55.48255157 C-59.44605227 39.29146404 -57.25267984 26.89237713 -45.74243164 14.75170898 C-32.46596707 2.20544996 -17.52239693 -0.10760831 0 0 Z M-18.99243164 43.50170898 C-21.47009471 47.21820359 -21.24836053 49.10074159 -21.25985718 53.54170227 C-21.26438829 54.26282092 -21.2689194 54.98393957 -21.27358782 55.72691029 C-21.286275 58.14971057 -21.28460869 60.57228731 -21.28295898 62.99511719 C-21.28894161 64.72964773 -21.29574654 66.4641756 -21.30331421 68.19869995 C-21.32101 72.91573107 -21.32567113 77.63268966 -21.32694578 82.34975076 C-21.32884329 86.2861035 -21.33619924 90.22243929 -21.34328997 94.15878552 C-21.35958565 103.44619776 -21.3644579 112.73357121 -21.36303711 122.02099609 C-21.36183582 131.60325347 -21.38293239 141.18528555 -21.41452444 150.76748592 C-21.4406739 158.99178672 -21.45140494 167.21601389 -21.45012629 175.44035596 C-21.4496162 180.35343315 -21.45532505 185.26631027 -21.47648239 190.17934608 C-21.49584201 194.8013191 -21.49600488 199.42290075 -21.48144913 204.04488754 C-21.47935699 205.74039849 -21.48408601 207.43593379 -21.49617004 209.13140297 C-21.51161231 211.44831695 -21.50232249 213.76387979 -21.48690796 216.08076477 C-21.48799749 217.37659642 -21.48908703 218.67242807 -21.49020958 220.00752735 C-20.9013161 224.14129991 -19.60404645 226.27903387 -16.99243164 229.50170898 C-13.29210035 231.96859651 -11.44757629 231.75756236 -7.02836609 231.76913452 C-5.95893877 231.77593119 -5.95893877 231.77593119 -4.86790687 231.78286517 C-2.4727449 231.7955515 -0.07780909 231.79388609 2.31738281 231.79223633 C4.0322092 231.79821901 5.7470329 231.80502395 7.46185303 231.81259155 C12.12516701 231.83028683 16.78840764 231.83494846 21.45175195 231.83622313 C25.34336887 231.83812069 29.23496865 231.8454767 33.12657899 231.85256732 C42.3085159 231.86886281 51.49041358 231.87373527 60.67236328 231.87231445 C70.14555859 231.87111318 79.61852601 231.8922095 89.09166366 231.92380178 C97.2225471 231.94995197 105.35335607 231.96068225 113.48428124 231.95940363 C118.34146801 231.95889356 123.19845239 231.9646013 128.05559731 231.98575974 C132.62504211 232.00512058 137.19409106 232.00528139 141.7635498 231.99072647 C143.43971014 231.98863449 145.1158951 231.99336248 146.79201317 232.00544739 C149.08265792 232.02089184 151.37193641 232.0115985 153.66255188 231.9961853 C154.94363484 231.99727484 156.22471781 231.99836437 157.54462147 231.99948692 C161.70824355 231.40099111 163.82306887 230.22710733 167.00756836 227.50170898 C169.3410114 223.55095619 169.26313674 219.81865575 169.2749939 215.2971344 C169.28179057 214.22514381 169.28179057 214.22514381 169.28872454 213.13149685 C169.30136056 210.7425463 169.29974872 208.35382397 169.2980957 205.96484375 C169.30408138 204.24972237 169.31088702 202.53460368 169.31845093 200.81948853 C169.33611222 196.1645571 169.34080631 191.50969921 169.3420825 186.85473752 C169.34350436 183.94618481 169.34777457 181.03765078 169.35307693 178.12910271 C169.37157624 167.98140145 169.3797475 157.83375272 169.37817383 147.68603516 C169.37697181 138.22756704 169.39808615 128.7693269 169.42966115 119.31091648 C169.45580986 111.18848521 169.46654174 103.06612848 169.46526301 94.94365543 C169.46475305 90.09320525 169.47045543 85.24295776 169.49161911 80.39254951 C169.51097832 75.83128573 169.51114192 71.27041852 169.49658585 66.70914078 C169.4944939 65.03620385 169.49922162 63.36324225 169.51130676 61.69034767 C169.52675126 59.4041881 169.517458 57.11939745 169.50204468 54.83326721 C169.50313421 53.55478189 169.50422375 52.27629656 169.5053463 50.95906925 C168.82552601 46.23731791 167.04432969 43.03049989 163.19796562 40.14342308 C160.07513378 39.22853643 157.21513583 39.24285978 153.96121216 39.23428345 C152.89662854 39.22748678 152.89662854 39.22748678 151.81053817 39.2205528 C149.43230106 39.20789222 147.05429247 39.20953022 144.67602539 39.21118164 C142.97090358 39.20519743 141.26578448 39.19839213 139.56066895 39.19082642 C134.9284048 39.1731485 130.29621454 39.16847029 125.66391993 39.16719484 C121.79710607 39.165296 117.93030943 39.15793866 114.06350219 39.15085065 C104.94051929 39.13456236 95.81757585 39.12968211 86.69458008 39.13110352 C77.28327939 39.13230515 67.87220795 39.1111999 58.46096528 39.07961619 C50.3810166 39.05346637 42.30114286 39.04273567 34.22115219 39.04401433 C29.39527891 39.04452434 24.56960936 39.03881986 19.74377823 39.01765823 C15.20468802 38.99829758 10.66599633 38.99813642 6.12689209 39.0126915 C4.46201877 39.01478339 2.79712065 39.01005606 1.13228989 38.99797058 C-1.14297771 38.98252499 -3.41687001 38.99182009 -5.69210815 39.00723267 C-6.96451796 39.00614313 -8.23692776 39.0050536 -9.54789543 39.00393105 C-13.64967916 39.59668935 -15.7899971 40.913828 -18.99243164 43.50170898 Z " fill="#A52D03" transform="translate(221.992431640625,144.498291015625)"/>
<path d="M0 0 C1.05352372 -0.00644889 2.10704744 -0.01289778 3.19249612 -0.0195421 C4.91922753 -0.01489629 4.91922753 -0.01489629 6.6808424 -0.01015663 C7.90861926 -0.01468774 9.13639612 -0.01921886 10.40137833 -0.02388728 C13.80658038 -0.03436025 17.21157127 -0.03585666 20.61677444 -0.03349853 C24.29037259 -0.0330904 27.96393923 -0.04412915 31.6375227 -0.05361366 C38.83383547 -0.07022553 46.03011549 -0.0757233 53.22644583 -0.07683842 C59.07628226 -0.07778882 64.92610788 -0.08189872 70.7759409 -0.08823967 C87.36247638 -0.10585271 103.94898599 -0.11507846 120.5355309 -0.11357872 C121.42968777 -0.11349881 122.32384463 -0.1134189 123.24509716 -0.11333656 C124.14034622 -0.1132548 125.03559527 -0.11317304 125.95797309 -0.1130888 C140.46641394 -0.11227592 154.97475096 -0.13141398 169.48316178 -0.1596133 C184.3814496 -0.18834182 199.27968679 -0.2021536 214.17800301 -0.20042574 C222.54181056 -0.19976182 230.90550928 -0.20525498 239.26929188 -0.22678185 C246.39055655 -0.24499326 253.51166305 -0.24934137 260.63294093 -0.235763 C264.26538047 -0.22923303 267.89751658 -0.22911679 271.52992725 -0.2464695 C275.47034674 -0.26509979 279.41032321 -0.25264627 283.35076427 -0.23720741 C284.49522638 -0.24749454 285.63968849 -0.25778167 286.81883126 -0.26838052 C294.43134194 -0.2024108 299.76148407 0.92170889 305.7297163 5.96820641 C310.22788071 11.50640883 312.22017118 16.45036535 312.01487255 23.64789391 C310.30744914 38.08534755 302.80638675 51.04381297 291.7062788 60.25726891 C277.26270279 71.20011378 260.9823598 70.84046249 243.72532177 70.77484703 C241.31910817 70.78027529 238.91289789 70.78740188 236.50669384 70.79608727 C230.67981475 70.81235843 224.85316782 70.81008106 219.02628194 70.7984367 C214.28699947 70.78936193 209.54777467 70.78819573 204.80848598 70.79253197 C203.79241999 70.79345137 203.79241999 70.79345137 202.7558274 70.79438934 C201.37929564 70.79566837 200.00276389 70.79696523 198.62623216 70.7982797 C185.75442012 70.80965374 172.88272251 70.79662099 160.01092924 70.77507824 C148.98891175 70.75720199 137.9670628 70.76032181 126.94504833 70.77875328 C114.11269173 70.80020235 101.28043504 70.80856391 88.44806302 70.79630423 C87.07752205 70.79503016 85.70698108 70.79377268 84.33644009 70.79253197 C83.66228733 70.79191487 82.98813458 70.79129776 82.29355296 70.79066196 C77.56411832 70.78722174 72.83474758 70.79300841 68.10532284 70.80245018 C61.73083776 70.81404081 55.35666972 70.80592386 48.98221874 70.78287315 C46.64904461 70.77760373 44.3158436 70.77906939 41.98268032 70.78792381 C22.94014943 70.85350513 8.17945113 68.6448566 -6.41481495 55.22992516 C-16.65285887 44.48104328 -20.74865522 32.35005325 -20.64137745 17.71430016 C-20.01439593 11.4797086 -17.20938655 8.07715099 -12.7937212 3.88226891 C-8.55918032 1.12981734 -5.04657201 0.00782911 0 0 Z " fill="#FD5706" transform="translate(554.2937211990356,760.7427310943604)"/>
<path d="M0 0 C1.63982207 -0.00457657 3.27963806 -0.01217699 4.91943359 -0.02256775 C9.36633706 -0.04164675 13.81202159 -0.01696445 18.25879955 0.01667047 C22.9199414 0.0456054 27.58103768 0.03792094 32.24224854 0.03520203 C40.07381308 0.03619184 47.9049041 0.06461489 55.73632812 0.11035156 C64.77387836 0.16289613 73.81083742 0.17703296 82.84852386 0.1693185 C91.55707923 0.16238569 100.26543572 0.17831024 108.97394562 0.20607567 C112.67226896 0.21774151 116.37049918 0.22232531 120.06884003 0.22127724 C124.43242467 0.22140375 128.79547168 0.24189627 133.15890503 0.27766991 C134.75433818 0.28769448 136.3498299 0.29108972 137.94528961 0.28712463 C151.2912623 0.26121334 160.1204209 3.21013543 171.18066406 10.4831543 C172.8366937 11.54990272 174.49294758 12.6163031 176.14941406 13.68237305 C176.96925781 14.2139502 177.78910156 14.74552734 178.63378906 15.29321289 C184.18219189 18.87842077 189.78735698 22.37178298 195.41357422 25.83325195 C196.84525845 26.72683066 198.25529404 27.65491004 199.66113281 28.58862305 C205.3490492 32.18258083 210.40392763 33.30228129 217.05566406 31.8581543 C227.45915884 27.51880187 236.84575014 20.09579576 246.08959961 13.75854492 C249.05050848 11.74541223 252.04344185 9.79354227 255.05566406 7.8581543 C256.05388184 7.18824463 257.05209961 6.51833496 258.08056641 5.828125 C266.55125114 0.61941433 273.6097842 -0.1597748 283.28808594 0.11035156 C285.5819827 0.1713542 287.87043562 0.17186199 290.16503906 0.16479492 C301.13658999 0.27931134 301.13658999 0.27931134 304.89746094 2.64794922 C309.27112464 7.12699644 309.39424528 10.99233413 309.46191406 17.09643555 C309.47331421 17.8954277 309.48471436 18.69441986 309.49645996 19.5176239 C309.51532103 21.20619441 309.5284125 22.8948379 309.53613281 24.58349609 C309.55552538 27.15228386 309.61757827 29.71785324 309.68066406 32.28588867 C309.69372831 33.93105207 309.70422762 35.57623823 309.71191406 37.22143555 C309.73660767 37.98208817 309.76130127 38.74274078 309.78674316 39.52644348 C309.74518953 44.56178913 308.54493379 47.6565395 305.14968503 51.38653517 C300.75578774 54.47444279 295.43090816 53.80556569 290.25730896 53.73358154 C288.95305704 53.74309035 287.64880511 53.75259915 286.30503041 53.7623961 C282.69067414 53.78772612 279.07765825 53.76943867 275.46335185 53.74390888 C271.56346631 53.72395416 267.66376317 53.74434369 263.7638855 53.75961304 C256.12670959 53.78303583 248.49004345 53.76887683 240.8528977 53.74167451 C231.96098487 53.71119654 223.06919672 53.71604212 214.17724646 53.72190192 C198.3134544 53.73097069 182.44990602 53.7051297 166.58618164 53.66088867 C151.18896098 53.61795626 135.79204834 53.60379915 120.39477539 53.61987305 C103.63100088 53.63733504 86.86736596 53.63910089 70.10359722 53.61328912 C68.31655793 53.61055596 66.52951863 53.60782962 64.74247932 53.60511017 C63.42356279 53.60306814 63.42356279 53.60306814 62.07800148 53.60098486 C55.87812275 53.59235861 49.67830197 53.59461023 43.47842216 53.60076141 C35.9248065 53.60780581 28.37147326 53.59662436 20.81792837 53.56225356 C16.96305343 53.54512301 13.10860117 53.53596803 9.25369835 53.54838943 C5.07773564 53.56155114 0.90291427 53.5360576 -3.27296448 53.50653076 C-4.49552006 53.51632013 -5.71807564 53.5261095 -6.97767836 53.53619552 C-16.09140317 53.41979537 -16.09140317 53.41979537 -19.17379665 50.44263077 C-23.35180488 44.34394431 -22.28413489 37.03507747 -22.34936523 29.85644531 C-22.37090653 28.07467216 -22.40496381 26.29300373 -22.4519043 24.51171875 C-22.5191565 21.93531312 -22.54640571 19.361097 -22.56542969 16.78393555 C-22.59326035 15.99513504 -22.621091 15.20633453 -22.64976501 14.39363098 C-22.63135915 9.39294728 -21.63259928 6.04479133 -18.23238468 2.32441044 C-12.99476352 -1.03202775 -6.02893771 -0.07678782 0 0 Z " fill="#FD5504" transform="translate(555.9443359375,677.141845703125)"/>
<path d="M0 0 C0.94708832 -0.00686325 1.89417664 -0.0137265 2.8699646 -0.02079773 C5.99028656 -0.03904984 9.11010503 -0.03523082 12.23046875 -0.02954102 C14.40470544 -0.03410317 16.57894068 -0.03940885 18.75317383 -0.04542542 C23.30588649 -0.05435311 27.8584237 -0.05193672 32.41113281 -0.04199219 C38.24205453 -0.03049597 44.07237125 -0.05072615 49.9032135 -0.07990932 C54.3916813 -0.09826331 58.88000385 -0.09798055 63.36849976 -0.0922718 C65.51826833 -0.09211853 67.6680467 -0.09816787 69.81777954 -0.11056328 C72.82421758 -0.12545803 75.8295343 -0.11480729 78.8359375 -0.09765625 C80.16399918 -0.1121582 80.16399918 -0.1121582 81.51889038 -0.12695312 C86.95934115 -0.06203628 90.18816425 0.66482512 94.41796875 4.40405273 C98.86248652 9.43167962 98.98948713 13.59307051 98.91967773 19.98608398 C98.92778221 21.40671646 98.92778221 21.40671646 98.93605042 22.85604858 C98.94852441 25.9765377 98.9320551 29.09610182 98.9140625 32.21655273 C98.91421752 34.39078825 98.91570697 36.56502405 98.91847229 38.73925781 C98.91985569 43.29203535 98.9073077 47.84449763 98.88452148 52.3972168 C98.85613734 58.22807201 98.85887511 64.05840352 98.8716116 69.88929749 C98.87857217 74.3777716 98.87077509 78.86612503 98.85835457 83.35458374 C98.85384378 85.50433896 98.85350001 87.65410715 98.85741997 89.80386353 C98.86033584 92.81018556 98.8438067 95.81579018 98.82202148 98.82202148 C98.82652313 99.70739594 98.83102478 100.59277039 98.83566284 101.50497437 C98.77506159 106.5476024 98.22094499 110.03962945 95.41796875 114.40405273 C89.97748008 119.31376202 86.3399768 119.55993126 79.19824219 119.58105469 C77.76385551 119.59091148 77.76385551 119.59091148 76.30049133 119.60096741 C73.12610806 119.62072778 69.95177218 119.63236945 66.77734375 119.64233398 C65.69444313 119.64640951 64.61154251 119.65048504 63.49582672 119.65468407 C57.76365854 119.67555704 52.03151439 119.68985314 46.29931641 119.69921875 C40.3764161 119.71028238 34.45389158 119.74467854 28.53112411 119.78439045 C23.97920022 119.81052954 19.42736619 119.81890823 14.87537384 119.82250023 C12.69209507 119.82737361 10.50882051 119.83900887 8.32561493 119.85753822 C5.26853133 119.88187027 2.21242411 119.88097518 -0.84472656 119.87402344 C-1.74573593 119.8868335 -2.6467453 119.89964355 -3.57505798 119.9128418 C-9.05049264 119.86749079 -12.32124978 119.17613962 -16.58203125 115.40405273 C-20.4210805 110.96050959 -20.013504 106.24583466 -19.98608398 100.66015625 C-19.99294724 99.68395325 -19.99981049 98.70775024 -20.00688171 97.70196533 C-20.02516532 94.47881477 -20.02130988 91.25615023 -20.015625 88.03295898 C-20.02018605 85.79003236 -20.02549139 83.54710714 -20.0315094 81.30418396 C-20.0404436 76.60426149 -20.03801377 71.90450891 -20.02807617 67.20458984 C-20.01658648 61.18419685 -20.0367969 55.16439038 -20.06599331 49.14407444 C-20.0843468 44.51234721 -20.0840645 39.88076074 -20.07835579 35.24900627 C-20.07820247 33.0294608 -20.08425553 30.80990586 -20.09664726 28.59039497 C-20.11153883 25.48567119 -20.10089295 22.38203374 -20.08374023 19.27734375 C-20.0934082 18.36234604 -20.10307617 17.44734833 -20.11303711 16.50462341 C-20.049615 11.01732794 -19.43223382 7.62680946 -15.58203125 3.40405273 C-10.5698036 -0.09308844 -5.88775761 -0.02993605 0 0 Z " fill="#A42C02" transform="translate(257.58203125,681.595947265625)"/>
<path d="M0 0 C1.43526283 -0.01051392 1.43526283 -0.01051392 2.89952087 -0.02124023 C6.05245251 -0.03879995 9.20448161 -0.02720432 12.35742188 -0.01367188 C14.5540789 -0.01636736 16.75073475 -0.02025025 18.9473877 -0.02526855 C23.5472349 -0.03116088 28.14677103 -0.02260893 32.74658203 -0.00390625 C38.63806164 0.01888281 44.52881232 0.00575835 50.4202652 -0.01819611 C54.9550728 -0.03266106 59.48970804 -0.02804482 64.02452087 -0.01768494 C66.19661038 -0.0150196 68.36871561 -0.01828061 70.54078674 -0.02760315 C73.57839314 -0.0377799 76.61482469 -0.02225113 79.65234375 0 C80.54706894 -0.00809692 81.44179413 -0.01619385 82.3636322 -0.02453613 C87.81483652 0.04931368 91.08165201 0.77054912 95.32617188 4.51757812 C99.07138327 8.90298973 98.75844139 13.36870435 98.73022461 18.86254883 C98.73708786 19.79652496 98.74395111 20.7305011 98.75102234 21.69277954 C98.76930426 24.77646139 98.76544996 27.85963501 98.75976562 30.94335938 C98.76432755 33.09181381 98.76963315 35.24026679 98.77565002 37.38871765 C98.78458448 41.89193651 98.78215505 46.39497806 98.7722168 50.89819336 C98.76074121 56.65832703 98.78091564 62.41784639 98.81013393 68.17789936 C98.82851729 72.61583828 98.82819893 77.05363068 98.82249641 81.49159813 C98.82234338 83.61459399 98.8283725 85.7375999 98.84078789 87.86055946 C98.85573181 90.83556759 98.84499454 93.80944995 98.82788086 96.78442383 C98.83754883 97.65482803 98.8472168 98.52523224 98.85717773 99.42201233 C98.78811413 105.18035354 97.88413264 109.86018554 94.32617188 114.51757812 C89.48970182 118.9551721 84.11202857 119.09419755 77.83007812 119.03515625 C76.90395721 119.04216553 75.9778363 119.0491748 75.02365112 119.05639648 C71.97834828 119.07392595 68.93398331 119.06237148 65.88867188 119.04882812 C63.76310041 119.05152448 61.63753015 119.0554081 59.51196289 119.0604248 C55.06351952 119.06631303 50.61539806 119.05777847 46.16699219 119.0390625 C40.47404861 119.01627363 34.78185941 119.0294003 29.08894348 119.05335236 C24.70164336 119.06782845 20.31452115 119.06319598 15.92721558 119.05284119 C13.82852081 119.05017892 11.72980973 119.053426 9.63113403 119.0627594 C6.6944113 119.07295462 3.75889858 119.05738194 0.82226562 119.03515625 C-0.03924103 119.04325317 -0.90074768 119.0513501 -1.7883606 119.05969238 C-7.2208151 118.98378888 -11.563287 118.29043101 -15.67382812 114.51757812 C-19.81838436 109.0779347 -20.25390261 103.52603204 -20.19140625 96.89208984 C-20.19841553 95.96421661 -20.2054248 95.03634338 -20.21264648 94.08035278 C-20.23014714 91.03567942 -20.21863375 87.99194722 -20.20507812 84.94726562 C-20.20777485 82.82072777 -20.21165878 80.69419112 -20.2166748 78.56765747 C-20.22255872 74.12099412 -20.21404068 69.67465311 -20.1953125 65.22802734 C-20.17249604 59.53389344 -20.18567047 53.84051263 -20.20960236 48.14640617 C-20.22406638 43.75914855 -20.21945199 39.37206909 -20.20909119 34.98480606 C-20.20642703 32.88528478 -20.20968269 30.78574722 -20.2190094 28.68624496 C-20.22918781 25.75182043 -20.21365664 22.81861151 -20.19140625 19.88427734 C-20.20355164 18.58898102 -20.20355164 18.58898102 -20.21594238 17.26751709 C-20.14048166 11.88561756 -19.35776676 8.70776798 -15.67382812 4.51757812 C-10.63108541 0.05192008 -6.41717265 -0.05807298 0 0 Z " fill="#A52D03" transform="translate(256.673828125,220.482421875)"/>
<path d="M0 0 C0.95669586 -0.00700928 1.91339172 -0.01401855 2.89907837 -0.02124023 C6.05744567 -0.03882634 9.21491479 -0.02719401 12.37329102 -0.01367188 C14.57137728 -0.01636682 16.76946237 -0.02024927 18.96754456 -0.02526855 C23.57336787 -0.03116464 28.17888076 -0.02259764 32.78466797 -0.00390625 C38.6840232 0.01886961 44.58264998 0.0057691 50.48197842 -0.01819611 C55.02107717 -0.03266234 59.56000375 -0.02804399 64.09910774 -0.01768494 C66.27398833 -0.01501926 68.44888462 -0.01828181 70.62374687 -0.02760315 C73.66625125 -0.03778051 76.70758279 -0.02224966 79.75 0 C80.64629623 -0.00809692 81.54259247 -0.01619385 82.46604919 -0.02453613 C87.9312695 0.04937527 91.19328282 0.7557072 95.43969727 4.51757812 C99.82107155 9.50104606 100.01659572 13.55780889 99.95727539 19.88427734 C99.96428467 20.80864594 99.97129395 21.73301453 99.97851562 22.68539429 C99.99607398 25.73132662 99.98447838 28.77632435 99.97094727 31.82226562 C99.97364325 33.9468707 99.97752656 36.07147458 99.98254395 38.19607544 C99.98843647 42.64629884 99.97988543 47.09620074 99.96118164 51.54638672 C99.93842032 57.23813998 99.95149924 62.92913756 99.9754715 68.62086296 C99.98995968 73.00820558 99.98530911 77.39537055 99.97496033 81.78271866 C99.97229995 83.88058691 99.97553843 85.97847151 99.98487854 88.07632065 C99.9950906 91.01534158 99.97947647 93.95315809 99.95727539 96.89208984 C99.96537231 97.75157227 99.97346924 98.61105469 99.98181152 99.49658203 C99.9020572 105.22458034 98.97109047 109.88269837 95.43969727 114.51757812 C90.60429778 118.95574097 85.22478813 119.09419035 78.94360352 119.03515625 C78.0174826 119.04216553 77.09136169 119.0491748 76.13717651 119.05639648 C73.09187367 119.07392595 70.0475087 119.06237148 67.00219727 119.04882812 C64.8766258 119.05152448 62.75105554 119.0554081 60.62548828 119.0604248 C56.17704491 119.06631303 51.72892345 119.05777847 47.28051758 119.0390625 C41.587574 119.01627363 35.8953848 119.0294003 30.20246887 119.05335236 C25.81516875 119.06782845 21.42804654 119.06319598 17.04074097 119.05284119 C14.9420462 119.05017892 12.84333512 119.053426 10.74465942 119.0627594 C7.80793669 119.07295462 4.87242397 119.05738194 1.93579102 119.03515625 C1.07428436 119.04325317 0.21277771 119.0513501 -0.67483521 119.05969238 C-6.45450702 118.97893748 -9.91659483 118.0559406 -14.56030273 114.51757812 C-18.73188028 109.05451697 -19.14039655 104.64976709 -19.07788086 97.91381836 C-19.08489014 96.97633759 -19.09189941 96.03885681 -19.09912109 95.07296753 C-19.11665084 91.99039634 -19.1050969 88.90875154 -19.09155273 85.82617188 C-19.09424886 83.67578455 -19.09813228 81.52539842 -19.10314941 79.37501526 C-19.10903748 74.87529863 -19.10050272 70.37590026 -19.08178711 65.8762207 C-19.05898452 60.11367975 -19.07213372 54.3518835 -19.09607697 48.58936977 C-19.11054174 44.15149845 -19.105926 39.71380326 -19.0955658 35.27592659 C-19.09290112 33.15128554 -19.09615913 31.02662841 -19.10548401 28.90200615 C-19.11566206 25.93155512 -19.100131 22.96230511 -19.07788086 19.99194336 C-19.08597778 19.11749069 -19.09407471 18.24303802 -19.10241699 17.34208679 C-19.00888176 10.58934396 -17.00104329 7.17395651 -12.40782166 2.17492676 C-8.28198608 -0.22644375 -4.69589568 -0.042326 0 0 Z " fill="#A52D04" transform="translate(706.560302734375,220.482421875)"/>
<path d="M0 0 C0.92490234 -0.02449219 1.84980469 -0.04898437 2.80273438 -0.07421875 C8.97680222 -0.1005474 12.72369894 0.61201498 17.6875 4.375 C20.42691813 8.11838702 21.08469796 10.83837527 21.19921875 15.44140625 C21.23499023 16.63636719 21.27076172 17.83132813 21.30761719 19.0625 C21.32985352 20.34125 21.35208984 21.62 21.375 22.9375 C21.40625977 24.25621094 21.43751953 25.57492187 21.46972656 26.93359375 C21.54806323 30.38924906 21.60459511 33.84492322 21.65496826 37.30108643 C21.68699277 39.34266357 21.72721856 41.38391576 21.77001953 43.42529297 C21.84511383 47.24187791 21.89622188 51.05791358 21.9375 54.875 C21.96976685 56.62598999 21.96976685 56.62598999 22.00268555 58.41235352 C22.04319851 68.76456205 22.04319851 68.76456205 18.6875 73.375 C14.85865395 77.05858657 12.48093552 77.87406436 7.20068359 77.87329102 C5.90939545 77.88332657 4.6181073 77.89336212 3.28768921 77.90370178 C2.60297924 77.89964891 1.91826927 77.89559605 1.21281052 77.89142036 C-0.93957072 77.87875616 -3.0906761 77.89010734 -5.24301147 77.90745544 C-9.03291393 77.93411364 -12.82250171 77.93975246 -16.61248779 77.93835449 C-22.68541539 77.93612256 -28.75795528 77.95019564 -34.83073044 77.99394035 C-36.95088829 78.00378701 -39.07043688 77.99505997 -41.19058228 77.98524475 C-43.11805801 77.99556984 -43.11805801 77.99556984 -45.08447266 78.00610352 C-46.21744781 78.00514175 -47.35042297 78.00417999 -48.51773071 78.00318909 C-51.31180291 78.15067798 -51.31180291 78.15067798 -53.1796875 79.72207642 C-54.93521327 82.2836212 -54.66390086 84.51343721 -54.6484375 87.58203125 C-54.66132813 88.80857422 -54.67421875 90.03511719 -54.6875 91.29882812 C-54.6875 93.87956912 -54.67975856 96.46032237 -54.6640625 99.04101562 C-54.79680908 109.59989952 -54.79680908 109.59989952 -57.7265625 113.19921875 C-61.47710694 116.35488831 -63.29991176 116.51022753 -68.13574219 116.56787109 C-69.9683963 116.59196548 -69.9683963 116.59196548 -71.83807373 116.61654663 C-73.17850041 116.628035 -74.51893487 116.63864339 -75.859375 116.6484375 C-76.87141872 116.65642302 -76.87141872 116.65642302 -77.90390778 116.66456985 C-81.47694258 116.69129844 -85.04994253 116.71067186 -88.62304688 116.72509766 C-91.57583689 116.73842413 -94.52793369 116.76625092 -97.48046875 116.80712891 C-101.04902229 116.85653418 -104.61694823 116.88122829 -108.18582916 116.88832474 C-110.20107948 116.89827313 -112.21616287 116.93249981 -114.23114014 116.96713257 C-124.44016531 116.94356111 -124.44016531 116.94356111 -128.12988281 114.02978516 C-132.35440457 108.89136798 -131.53128999 103.35123632 -131.5625 97 C-131.583125 95.9584375 -131.60375 94.916875 -131.625 93.84375 C-131.6751233 84.04464542 -131.6751233 84.04464542 -128.3125 80.375 C-124.58641432 77.72414347 -122.04790873 76.99809166 -117.49609375 77.01171875 C-116.40232422 77.01236328 -115.30855469 77.01300781 -114.18164062 77.01367188 C-113.04919922 77.02978516 -111.91675781 77.04589844 -110.75 77.0625 C-109.61369141 77.05927734 -108.47738281 77.05605469 -107.30664062 77.05273438 C-98.50872892 77.10982997 -98.50872892 77.10982997 -94.3125 79.375 C-91.51685265 78.98912603 -91.51685265 78.98912603 -89.3125 77.375 C-87.28727477 77.26537027 -85.2585616 77.21910061 -83.23046875 77.19921875 C-81.98845703 77.17537109 -80.74644531 77.15152344 -79.46679688 77.12695312 C-76.83414641 77.08417742 -74.20128423 77.05282254 -71.56835938 77.03320312 C-70.32248047 77.00548828 -69.07660156 76.97777344 -67.79296875 76.94921875 C-66.64723389 76.93463623 -65.50149902 76.92005371 -64.32104492 76.9050293 C-61.25532398 76.582133 -61.25532398 76.582133 -58.93676758 74.72167969 C-56.85504766 71.71409035 -56.8285219 69.89369294 -56.84375 66.25390625 C-56.82957031 65.07119141 -56.81539063 63.88847656 -56.80078125 62.66992188 C-56.80858149 60.18554684 -56.81639395 57.70117184 -56.82421875 55.21679688 C-56.81003906 54.03279297 -56.79585938 52.84878906 -56.78125 51.62890625 C-56.78576172 50.54939697 -56.79027344 49.4698877 -56.79492188 48.35766602 C-56.19614553 44.65561612 -54.89413684 43.04746139 -52.3125 40.375 C-48.91388159 38.1092544 -47.71044528 38.13511364 -43.7265625 38.13671875 C-42.63085938 38.12060547 -41.53515625 38.10449219 -40.40625 38.08789062 C-38.10161835 38.07102114 -35.79687163 38.06573307 -33.4921875 38.07226562 C-28.71042886 37.98527354 -25.28828547 37.91384912 -21.05859375 35.578125 C-18.37532089 30.65579 -18.68719154 25.95472729 -18.75 20.4375 C-18.85333096 7.21908505 -18.85333096 7.21908505 -14.3125 2.375 C-9.75510238 -0.41269274 -5.19455457 0.00715011 0 0 Z " fill="#A42D04" transform="translate(333.3125,450.625)"/>
<path d="M0 0 C0.98097656 -0.02449219 1.96195312 -0.04898438 2.97265625 -0.07421875 C9.0168 -0.09868897 12.55424256 0.30393952 17.125 4.375 C19.33834029 7.69501043 19.39306192 8.8631732 19.46875 12.7421875 C19.49839844 13.79277344 19.52804687 14.84335937 19.55859375 15.92578125 C19.58050781 17.02277344 19.60242188 18.11976563 19.625 19.25 C19.66854115 21.41425122 19.72033429 23.57835561 19.78125 25.7421875 C19.80928711 27.18247314 19.80928711 27.18247314 19.83789062 28.65185547 C20.14843815 31.59730368 20.74320752 33.75549642 22.125 36.375 C27.41020915 38.13673638 33.03062491 37.64452842 38.5625 37.6875 C39.80322266 37.71650391 41.04394531 37.74550781 42.32226562 37.77539062 C43.51400391 37.78376953 44.70574219 37.79214844 45.93359375 37.80078125 C47.02470459 37.81536377 48.11581543 37.82994629 49.23999023 37.8449707 C52.20407429 37.5792844 52.20407429 37.5792844 54.48706055 35.69921875 C56.51729389 32.81833912 56.58489332 31.26154137 56.5234375 27.76171875 C56.52859375 26.67826172 56.53375 25.59480469 56.5390625 24.47851562 C56.51315364 22.21278584 56.47938082 19.94713146 56.4375 17.68164062 C56.48395018 11.15151974 56.90099578 7.25626387 61.63916016 2.55786133 C65.68149337 -0.66019724 70.43061198 0.1124097 75.375 0.0625 C76.31730469 0.03349609 77.25960937 0.00449219 78.23046875 -0.02539062 C84.02879084 -0.0782505 87.65081079 0.29681822 92.125 4.375 C94.8013877 8.10435337 95.50186742 10.65940648 95.48828125 15.2265625 C95.48731445 16.87398437 95.48731445 16.87398437 95.48632812 18.5546875 C95.47021484 19.69164062 95.45410156 20.82859375 95.4375 22 C95.44072266 23.1446875 95.44394531 24.289375 95.44726562 25.46875 C95.39223066 33.97415401 95.39223066 33.97415401 93.125 37.375 C93.40774138 40.68586259 93.40774138 40.68586259 95.125 43.375 C95.37018531 47.7519292 95.35365177 52.13501613 95.36523438 56.51806641 C95.3748095 58.70646111 95.40575146 60.89386263 95.4375 63.08203125 C95.49088106 70.32673625 94.99501615 76.67649175 92.77978516 83.63134766 C91.20260415 90.23998307 92.06869523 97.31211538 92.33007812 104.05078125 C92.3697168 105.78908203 92.3697168 105.78908203 92.41015625 107.5625 C92.45019775 108.60792969 92.49023926 109.65335938 92.53149414 110.73046875 C92.125 113.375 92.125 113.375 90.46240234 115.20898438 C85.85933627 117.50522874 80.73044175 116.88644173 75.6875 116.875 C73.98883789 116.91753906 73.98883789 116.91753906 72.25585938 116.9609375 C62.98619121 116.98278704 62.98619121 116.98278704 59.90234375 113.96875 C57.29281563 110.16055951 57.00559235 108.26329394 56.984375 103.66796875 C56.96503906 102.52392578 56.94570313 101.37988281 56.92578125 100.20117188 C56.89209295 97.78727561 56.87371069 95.37311428 56.87109375 92.95898438 C56.76726184 88.09254686 56.68115846 84.4296969 54.390625 80.0859375 C49.16086536 77.34594381 43.93685352 77.75195986 38.125 77.8125 C35.79172556 77.8291297 33.45824896 77.82847939 31.125 77.80859375 C30.09375 77.81947021 29.0625 77.83034668 28 77.84155273 C24.33997794 77.24760724 22.74252961 75.96100338 20.125 73.375 C17.9410062 70.18250161 17.86311715 67.4382596 17.81640625 63.62109375 C17.79126953 62.51958984 17.76613281 61.41808594 17.74023438 60.28320312 C17.70501964 57.96555164 17.67378271 55.64783637 17.64648438 53.33007812 C17.62005859 52.22986328 17.59363281 51.12964844 17.56640625 49.99609375 C17.55295166 48.9898999 17.53949707 47.98370605 17.52563477 46.94702148 C17.3277797 44.35413441 17.3277797 44.35413441 15.78491211 42.58618164 C12.56470647 40.23650666 9.59917693 40.25375951 5.7578125 40.234375 C4.70722656 40.21503906 3.65664063 40.19570313 2.57421875 40.17578125 C0.36606781 40.14204921 -1.84237423 40.12370725 -4.05078125 40.12109375 C-13.04859764 39.91184221 -13.04859764 39.91184221 -16.0703125 36.953125 C-19.83671239 31.57255372 -19.13366727 26.48295031 -19.1875 20.0625 C-19.21650391 18.92103516 -19.24550781 17.77957031 -19.27539062 16.60351562 C-19.33919377 8.20604006 -19.33919377 8.20604006 -17.10546875 4.20703125 C-11.65982415 -0.26583621 -6.81059705 0.00887953 0 0 Z " fill="#A52D04" transform="translate(409.875,527.625)"/>
<path d="M0 0 C1.80250969 -0.01913956 1.80250969 -0.01913956 3.64143372 -0.03866577 C4.94142807 -0.04089142 6.24142242 -0.04311707 7.58081055 -0.04541016 C8.92978558 -0.05183898 10.27875921 -0.0585674 11.62773132 -0.06558228 C14.45644358 -0.07755775 17.28503371 -0.08126297 20.11376953 -0.08007812 C23.72865162 -0.07987522 27.34274494 -0.10714475 30.95744038 -0.14162254 C33.74482273 -0.16392654 36.53201655 -0.16791457 39.31947899 -0.16685867 C41.29697366 -0.17035041 43.27440948 -0.19199688 45.25178528 -0.21395874 C56.49692637 -0.15682673 56.49692637 -0.15682673 61.1550293 4.29052734 C63.3752389 7.62084175 63.41356885 8.76788224 63.46362305 12.65771484 C63.48875977 13.70830078 63.51389648 14.75888672 63.53979492 15.84130859 C63.57482634 18.04958518 63.60610346 20.25792465 63.63354492 22.46630859 C63.67318359 24.04605469 63.67318359 24.04605469 63.71362305 25.65771484 C63.73380493 27.09800049 63.73380493 27.09800049 63.75439453 28.56738281 C64.22575959 31.77128643 65.26800791 33.67932581 67.1550293 36.29052734 C69.75507211 37.59054875 71.7344619 37.45063286 74.64331055 37.50146484 C76.29169922 37.54400391 76.29169922 37.54400391 77.97338867 37.58740234 C80.29094056 37.63922016 82.60867224 37.68356913 84.92651367 37.72021484 C86.02930664 37.75115234 87.13209961 37.78208984 88.26831055 37.81396484 C89.27676025 37.83378418 90.28520996 37.85360352 91.32421875 37.87402344 C94.59761154 38.35564553 96.48931302 39.35810059 99.1550293 41.29052734 C102.93043607 46.57774908 102.63808743 52.04492127 102.5925293 58.29052734 C102.61250977 59.26248047 102.63249023 60.23443359 102.65307617 61.23583984 C102.64911221 67.05493619 102.24794546 70.8019866 98.1550293 75.29052734 C94.80427526 77.45199017 92.03028953 77.54833139 88.08886719 77.56518555 C86.86402115 77.57471756 85.63917511 77.58424957 84.37721252 77.59407043 C83.05736862 77.59315903 81.73752472 77.59224762 80.37768555 77.59130859 C79.005324 77.59519762 77.63296365 77.59953272 76.26060486 77.60429382 C73.38658748 77.61174793 70.51269296 77.61147069 67.63867188 77.60620117 C63.96219419 77.6004076 60.28622047 77.61733812 56.60982609 77.64054585 C53.77616961 77.65530348 50.94263395 77.65615216 48.10894585 77.65303612 C46.09653887 77.65379674 44.08415058 77.6676533 42.0717926 77.68171692 C40.8437944 77.67548813 39.6157962 77.66925934 38.35058594 77.6628418 C37.27233047 77.66347122 36.19407501 77.66410065 35.08314514 77.66474915 C31.71314199 77.23405285 29.86818064 76.30829201 27.1550293 74.29052734 C24.9022641 70.91137955 24.89530252 69.66824439 24.84643555 65.70458984 C24.82129883 64.60888672 24.79616211 63.51318359 24.77026367 62.38427734 C24.73522702 60.0796443 24.70395101 57.77495089 24.67651367 55.47021484 C24.65008789 54.37193359 24.62366211 53.27365234 24.59643555 52.14208984 C24.58298096 51.14000488 24.56952637 50.13791992 24.55566406 49.10546875 C24.0917097 45.84563098 23.0813692 43.93964953 21.1550293 41.29052734 C18.6110477 40.01853655 16.76624199 40.14805164 13.9206543 40.11474609 C12.87135742 40.09089844 11.82206055 40.06705078 10.7409668 40.04248047 C8.53282447 39.9998173 6.32443362 39.96840209 4.1159668 39.94873047 C-2.0994753 39.78536616 -6.20988712 39.62632573 -10.8449707 35.29052734 C-13.91193657 30.39960085 -13.21335546 24.93960238 -13.2199707 19.35302734 C-13.24446289 18.26828125 -13.26895508 17.18353516 -13.29418945 16.06591797 C-13.32354329 8.10613721 -13.32354329 8.10613721 -11.0090332 4.16162109 C-7.14014268 0.81649734 -5.04454263 0.03631842 0 0 Z " fill="#A52D03" transform="translate(478.844970703125,336.70947265625)"/>
<path d="M0 0 C1.18916016 -0.02900391 2.37832031 -0.05800781 3.60351562 -0.08789062 C4.75142578 -0.09626953 5.89933594 -0.10464844 7.08203125 -0.11328125 C8.13237549 -0.12786377 9.18271973 -0.14244629 10.26489258 -0.1574707 C13.98407181 0.44059295 15.56405806 1.6393814 18.1875 4.3125 C20.89619024 9.42162014 20.59155614 14.59798812 20.625 20.25 C20.65787109 21.22646484 20.69074219 22.20292969 20.72460938 23.20898438 C20.78455797 31.24754548 20.78455797 31.24754548 17.78515625 34.94140625 C14.15714413 38.25299024 12.53798715 38.42987422 7.734375 38.453125 C6.09275391 38.48212891 6.09275391 38.48212891 4.41796875 38.51171875 C2.11345444 38.54534242 -0.19133565 38.56378423 -2.49609375 38.56640625 C-9.33088932 38.61446801 -9.33088932 38.61446801 -15.57421875 41.046875 C-19.09076841 46.177478 -18.50479186 51.24223466 -18.375 57.3125 C-18.16064435 69.16052142 -18.16064435 69.16052142 -19.88232422 72.203125 C-23.55606068 75.95090158 -26.5043402 76.4442928 -31.54394531 76.50537109 C-32.74569397 76.52143402 -33.94744263 76.53749695 -35.18560791 76.55404663 C-40.68900398 76.59842269 -46.1922683 76.64000845 -51.69580078 76.66259766 C-54.60009352 76.67592345 -57.50368135 76.70374891 -60.40771484 76.74462891 C-63.91791535 76.79404013 -67.42747775 76.81872899 -70.93801117 76.82582474 C-72.92002523 76.83577139 -74.90186959 76.86999673 -76.88360596 76.90463257 C-86.92541083 76.88106495 -86.92541083 76.88106495 -90.61621094 73.90478516 C-94.97562867 68.75935413 -94.1070516 63.57882067 -94.1875 57.0625 C-94.24357422 55.36287109 -94.24357422 55.36287109 -94.30078125 53.62890625 C-94.39974754 44.24910156 -94.39974754 44.24910156 -91.4765625 40.578125 C-87.57527473 37.26031428 -84.78700209 37.18654636 -79.828125 37.1706543 C-78.59674805 37.16361984 -77.36537109 37.15658539 -76.09667969 37.14933777 C-75.43937866 37.14752188 -74.78207764 37.14570599 -74.1048584 37.14383507 C-72.04538853 37.13665913 -69.98615547 37.12098612 -67.92675781 37.10249329 C-62.07229784 37.05006437 -56.21797117 37.0020166 -50.36328125 36.98657227 C-46.78044147 36.97650162 -43.19820298 36.94720737 -39.61560059 36.90525246 C-38.25049381 36.89292939 -36.88530218 36.88782361 -35.5201416 36.89005089 C-33.61232175 36.89239847 -31.70452523 36.86807707 -29.796875 36.8425293 C-28.71116211 36.83666306 -27.62544922 36.83079681 -26.50683594 36.82475281 C-23.7037806 36.55517815 -23.7037806 36.55517815 -21.96054077 34.44523621 C-20.48660069 31.70707093 -20.45885967 29.76610457 -20.4765625 26.6640625 C-20.46367188 25.57609375 -20.45078125 24.488125 -20.4375 23.3671875 C-20.4375 21.08852827 -20.44525902 18.80985529 -20.4609375 16.53125 C-20.32838892 7.18657479 -20.32838892 7.18657479 -17.3984375 3.5859375 C-12.1918335 -0.99146964 -6.67450362 0.05373996 0 0 Z " fill="#A52E04" transform="translate(559.8125,145.6875)"/>
<path d="M0 0 C1.80887695 -0.01836914 1.80887695 -0.01836914 3.65429688 -0.03710938 C4.80865234 -0.03904297 5.96300781 -0.04097656 7.15234375 -0.04296875 C8.74357056 -0.04913208 8.74357056 -0.04913208 10.36694336 -0.05541992 C13.0625 0.1875 13.0625 0.1875 16.0625 2.1875 C18.34647032 1.84144389 19.99659037 1.22045481 22.0625 0.1875 C24.03586269 0.09027194 26.01252584 0.05673416 27.98828125 0.0546875 C29.77202148 0.05275391 29.77202148 0.05275391 31.59179688 0.05078125 C33.46448242 0.05658203 33.46448242 0.05658203 35.375 0.0625 C36.61185547 0.05863281 37.84871094 0.05476563 39.12304688 0.05078125 C40.91258789 0.05271484 40.91258789 0.05271484 42.73828125 0.0546875 C43.83052002 0.05581543 44.92275879 0.05694336 46.0480957 0.05810547 C49.0625 0.1875 49.0625 0.1875 51.83276367 0.75830078 C54.0899686 1.42718882 54.0899686 1.42718882 56.0625 0.1875 C60.13964303 -0.10987713 64.22579087 -0.09060009 68.3125 -0.125 C69.44558594 -0.15400391 70.57867188 -0.18300781 71.74609375 -0.21289062 C82.38482945 -0.29395954 82.38482945 -0.29395954 87.0625 4.1875 C89.02653396 7.33156212 89.30056767 9.71368069 89.2578125 13.390625 C89.25136719 14.3703125 89.24492188 15.35 89.23828125 16.359375 C89.21314453 17.88304687 89.21314453 17.88304687 89.1875 19.4375 C89.17847656 20.46875 89.16945313 21.5 89.16015625 22.5625 C89.13662011 25.10440287 89.10374023 27.6458328 89.0625 30.1875 C88.04772583 30.24695801 88.04772583 30.24695801 87.01245117 30.30761719 C59.81027825 31.91236559 59.81027825 31.91236559 33.02000427 36.6835022 C27.56493137 38.00764791 22.46920716 38.50760003 16.86328125 38.5234375 C16.02460007 38.5300943 15.18591888 38.5367511 14.32182312 38.54360962 C12.56474986 38.55365606 10.80763906 38.55842915 9.05053711 38.55810547 C6.37094843 38.56250665 3.69297324 38.59898556 1.01367188 38.63671875 C-0.70311943 38.6425832 -2.41991846 38.64655508 -4.13671875 38.6484375 C-4.93059494 38.66280853 -5.72447113 38.67717957 -6.54240417 38.69198608 C-11.78679111 38.64903417 -14.77516111 37.66022779 -18.9375 34.1875 C-21.03789074 29.98671851 -20.2555174 24.55309091 -20.3125 19.9375 C-20.34988281 18.80441406 -20.38726563 17.67132813 -20.42578125 16.50390625 C-20.52473347 7.12543448 -20.52473347 7.12543448 -17.5390625 3.453125 C-12.27333768 -1.13264136 -6.72109555 0.00358076 0 0 Z " fill="#A52D04" transform="translate(599.9375,450.8125)"/>
<path d="M0 0 C0.96808594 -0.01998047 1.93617188 -0.03996094 2.93359375 -0.06054688 C9.18690298 -0.05629292 13.09677921 0.6227565 18.125 4.4375 C21.05979955 9.05117753 20.49309986 14.02008911 20.5 19.3125 C20.52449219 20.29347656 20.54898438 21.27445312 20.57421875 22.28515625 C20.59794393 28.14527667 20.26462969 31.92021988 16.125 36.4375 C11.25227539 39.49319803 5.81898835 38.84520161 0.25 38.875 C-0.82636719 38.90787109 -1.90273438 38.94074219 -3.01171875 38.97460938 C-11.87829318 39.03474027 -11.87829318 39.03474027 -15.5703125 36.09765625 C-19.88122711 31.12183786 -19.09274588 25.82786208 -19.125 19.5625 C-19.145625 18.56863281 -19.16625 17.57476562 -19.1875 16.55078125 C-19.2377544 7.16577119 -19.2377544 7.16577119 -15.875 3.4375 C-11.28543693 -0.64310374 -5.8099081 -0.04221201 0 0 Z " fill="#A52F06" transform="translate(784.875,450.5625)"/>
<path d="M0 0 C0.93328125 -0.01611328 1.8665625 -0.03222656 2.828125 -0.04882812 C8.12880788 -0.05258215 12.15695973 0.13783981 16.625 3.3125 C20.78223723 7.8117884 20.06831013 13.47779416 20 19.25 C20.01160156 20.22646484 20.02320313 21.20292969 20.03515625 22.20898438 C20.01337864 27.56264692 19.92820042 31.85945133 16.625 36.3125 C11.49962198 40.06741373 6.16015492 39.76366779 0.0625 39.6875 C-0.87013672 39.69910156 -1.80277344 39.71070313 -2.76367188 39.72265625 C-7.73818236 39.70138251 -11.42028156 39.66755864 -15.375 36.3125 C-19.78520581 31.48172986 -18.8512768 26.08986282 -18.8125 19.875 C-18.83248047 18.74255859 -18.85246094 17.61011719 -18.87304688 16.44335938 C-18.86818302 8.18939024 -18.86818302 8.18939024 -16.59765625 4.15234375 C-11.27919835 -0.25010558 -6.66439406 -0.02282327 0 0 Z " fill="#A52E05" transform="translate(561.375,259.6875)"/>
<path d="M0 0 C1.03769531 -0.02900391 2.07539062 -0.05800781 3.14453125 -0.08789062 C9.31276681 -0.13909565 13.15213011 0.02265734 17.75 4.3125 C20.63611446 8.98635693 20.11804784 13.8551909 20.125 19.1875 C20.14949219 20.16847656 20.17398438 21.14945312 20.19921875 22.16015625 C20.22368897 28.2043 19.82106048 31.74174256 15.75 36.3125 C11.11360624 39.40342918 6.39172321 38.68106434 0.9375 38.6875 C-0.14337891 38.71199219 -1.22425781 38.73648438 -2.33789062 38.76171875 C-8.57936816 38.78470762 -12.61147037 38.68268494 -17.25 34.3125 C-20.10960593 29.65141076 -19.69428555 24.81724747 -19.75 19.5 C-19.79125 18.52740234 -19.8325 17.55480469 -19.875 16.55273438 C-19.93021668 11.45554479 -19.69339425 8.16621814 -16.34375 4.17578125 C-11.49673018 -0.74429809 -6.59844272 0.06057322 0 0 Z " fill="#A73008" transform="translate(860.25,450.6875)"/>
<path d="M0 0 C0.99 -0.02900391 1.98 -0.05800781 3 -0.08789062 C8.90910422 -0.13923979 12.70737224 0.11985457 17.25 4.3125 C21.23505064 8.83675411 20.73100275 14.02741098 20.6875 19.75 C20.7174707 21.1431543 20.7174707 21.1431543 20.74804688 22.56445312 C20.74397576 28.28437571 20.24110121 31.88651606 16.25 36.3125 C11.37063944 39.38844572 5.89122713 38.68089405 0.3125 38.6875 C-0.77224609 38.71199219 -1.85699219 38.73648438 -2.97460938 38.76171875 C-10.90583198 38.79096727 -10.90583198 38.79096727 -14.87890625 36.5390625 C-19.38654256 31.17506939 -19.1791139 26.26519256 -19.25 19.5 C-19.29125 18.52740234 -19.3325 17.55480469 -19.375 16.55273438 C-19.43021668 11.45554479 -19.19339425 8.16621814 -15.84375 4.17578125 C-11.09711396 -0.64240122 -6.46738518 0.0621864 0 0 Z " fill="#A53008" transform="translate(484.75,450.6875)"/>
<path d="M0 0 C1.62808594 -0.05607422 1.62808594 -0.05607422 3.2890625 -0.11328125 C12.28084095 -0.2122128 12.28084095 -0.2122128 15.953125 2.7734375 C20.47215794 7.891934 19.50734888 13.10980928 19.5625 19.6875 C19.59150391 20.82896484 19.62050781 21.97042969 19.65039062 23.14648438 C19.71449018 31.58297241 19.71449018 31.58297241 17.35546875 35.60546875 C12.44813887 39.72981093 6.58454498 38.6774101 0.4375 38.75 C-0.75166016 38.78738281 -1.94082031 38.82476563 -3.16601562 38.86328125 C-12.9612862 38.96227893 -12.9612862 38.96227893 -16.01171875 35.9765625 C-19.56174394 30.66349109 -19.04422914 25.89575582 -19.125 19.625 C-19.16238281 18.53960938 -19.19976562 17.45421875 -19.23828125 16.3359375 C-19.3372128 7.34415905 -19.3372128 7.34415905 -16.3515625 3.671875 C-11.34722337 -0.74637036 -6.43775825 0.08292194 0 0 Z " fill="#A52D04" transform="translate(484.75,799.625)"/>
<path d="M0 0 C1.62808594 -0.05607422 1.62808594 -0.05607422 3.2890625 -0.11328125 C12.28084095 -0.2122128 12.28084095 -0.2122128 15.953125 2.7734375 C20.39455095 7.8040322 19.46984216 12.72241314 19.5 19.1875 C19.520625 20.28126953 19.54125 21.37503906 19.5625 22.50195312 C19.57023437 24.0884668 19.57023437 24.0884668 19.578125 25.70703125 C19.59214355 27.15686401 19.59214355 27.15686401 19.60644531 28.63598633 C19.17805476 31.927845 18.25578649 33.74148501 16.25 36.375 C11.52364433 39.70643524 5.344697 38.74372411 -0.1875 38.75 C-1.88616211 38.78673828 -1.88616211 38.78673828 -3.61914062 38.82421875 C-11.93751147 38.85362961 -11.93751147 38.85362961 -15.97265625 36.4765625 C-20.02186218 31.68871021 -19.05072082 26.14161338 -19.125 20.125 C-19.16238281 18.99191406 -19.19976562 17.85882813 -19.23828125 16.69140625 C-19.33723347 7.31293448 -19.33723347 7.31293448 -16.3515625 3.640625 C-11.33072695 -0.73187443 -6.42613607 0.08277224 0 0 Z " fill="#A52E05" transform="translate(409.75,450.625)"/>
<path d="M0 0 C1.02867187 -0.03287109 2.05734375 -0.06574219 3.1171875 -0.09960938 C11.59612312 -0.15970492 11.59612312 -0.15970492 15.2890625 2.83984375 C19.86212804 7.92527616 18.91904248 13.16668164 19 19.75 C19.05607422 21.46219727 19.05607422 21.46219727 19.11328125 23.20898438 C19.21226095 32.61755457 19.21226095 32.61755457 16.2265625 35.66796875 C10.83095961 39.3379509 5.77195918 38.8082685 -0.625 38.9375 C-1.75808594 38.99164063 -2.89117187 39.04578125 -4.05859375 39.1015625 C-11.96241168 39.23128519 -11.96241168 39.23128519 -15.48779297 37.25024414 C-18.90417021 33.88304894 -19.7454583 30.64555807 -20.1015625 25.93359375 C-20.09892739 23.91378048 -20.06433366 21.89379017 -20 19.875 C-20.00644531 18.85986328 -20.01289063 17.84472656 -20.01953125 16.79882812 C-19.9328726 10.76817372 -19.51160478 6.94683772 -15.375 2.4375 C-10.60242758 -0.5312149 -5.45070133 0.03050766 0 0 Z " fill="#A52E06" transform="translate(221.375,450.5625)"/>
<path d="M0 0 C1.18916016 -0.03738281 2.37832031 -0.07476562 3.60351562 -0.11328125 C13.3987862 -0.21227893 13.3987862 -0.21227893 16.44921875 2.7734375 C20.01298969 8.1070812 19.44496006 12.89459964 19.5 19.1875 C19.52900391 20.28126953 19.55800781 21.37503906 19.58789062 22.50195312 C19.65196942 30.59066916 19.65196942 30.59066916 17.29296875 34.57421875 C12.40812731 38.75216291 6.52840744 37.63795566 0.375 37.6875 C-1.40874023 37.73100586 -1.40874023 37.73100586 -3.22851562 37.77539062 C-4.95038086 37.78795898 -4.95038086 37.78795898 -6.70703125 37.80078125 C-7.75737549 37.81536377 -8.80771973 37.82994629 -9.88989258 37.8449707 C-13.55618972 37.25541077 -15.1975097 35.96598614 -17.8125 33.375 C-19.42761207 28.52966379 -19.08027743 23.57452128 -19.125 18.5 C-19.15400391 17.41074219 -19.18300781 16.32148438 -19.21289062 15.19921875 C-19.27686449 7.15819619 -19.27686449 7.15819619 -16.91796875 3.1796875 C-12.04018628 -1.0012689 -6.15143475 0.07264174 0 0 Z " fill="#A52E04" transform="translate(484.8125,260.625)"/>
<path d="M0 0 C1.14791016 0.00386719 2.29582031 0.00773437 3.47851562 0.01171875 C5.26225586 0.04845703 5.26225586 0.04845703 7.08203125 0.0859375 C8.88317383 0.08787109 8.88317383 0.08787109 10.72070312 0.08984375 C19.61361918 0.18002543 19.61361918 0.18002543 21.89453125 2.4609375 C21.11327881 2.45980957 20.33202637 2.45868164 19.52709961 2.45751953 C15.96121545 2.46968166 12.39744336 2.52739815 8.83203125 2.5859375 C6.98834961 2.58207031 6.98834961 2.58207031 5.10742188 2.578125 C-2.80946786 2.6781665 -2.80946786 2.6781665 -9.4765625 6.515625 C-10.34410156 7.48757813 -11.21164062 8.45953125 -12.10546875 9.4609375 C-11.82427281 6.08658628 -11.38211378 4.73425096 -8.9362793 2.31787109 C-5.63074633 0.14953269 -3.91472766 -0.03062838 0 0 Z " fill="#A94728" transform="translate(593.10546875,450.5390625)"/>
<path d="M0 0 C0.66 0 1.32 0 2 0 C2.01458252 0.63502441 2.02916504 1.27004883 2.04418945 1.92431641 C2.11905089 4.82513081 2.21558426 7.72484206 2.3125 10.625 C2.33505859 11.62402344 2.35761719 12.62304688 2.38085938 13.65234375 C2.58386107 19.22566293 2.98162336 23.25799273 6 28 C3.63502765 27.05401106 2.27012823 26.42255353 0.87939453 24.24707031 C-0.15349915 21.60777175 -0.22821769 19.62672095 -0.1953125 16.796875 C-0.18886719 15.8171875 -0.18242188 14.8375 -0.17578125 13.828125 C-0.15902344 12.81234375 -0.14226563 11.7965625 -0.125 10.75 C-0.11597656 9.71875 -0.10695313 8.6875 -0.09765625 7.625 C-0.07412011 5.08309713 -0.04124023 2.5416672 0 0 Z " fill="#B2482A" transform="translate(766,459)"/>
<path d="M0 0 C0.95777344 0.00322266 1.91554688 0.00644531 2.90234375 0.00976562 C3.84464844 -0.00634766 4.78695312 -0.02246094 5.7578125 -0.0390625 C11.16668842 -0.04285554 14.95081707 0.33253641 19.65234375 3.32226562 C16.95077756 4.67304872 15.57471886 3.95103104 12.65234375 3.32226562 C10.88781979 3.18222933 9.12015331 3.07825783 7.3515625 3.00585938 C6.37509766 2.96396484 5.39863281 2.92207031 4.39257812 2.87890625 C2.88147461 2.81993164 2.88147461 2.81993164 1.33984375 2.75976562 C-0.20026367 2.69499023 -0.20026367 2.69499023 -1.77148438 2.62890625 C-4.29675194 2.52319738 -6.82211187 2.42110095 -9.34765625 2.32226562 C-6.43797253 -0.5874181 -3.98091064 0.03088154 0 0 Z " fill="#B05E3E" transform="translate(558.34765625,259.677734375)"/>
<path d="M0 0 C0.33 0.99 0.66 1.98 1 3 C0.34 3.66 -0.32 4.32 -1 5 C-1.33684792 7.06395941 -1.33684792 7.06395941 -1.34375 9.4296875 C-1.37339844 10.30753906 -1.40304687 11.18539063 -1.43359375 12.08984375 C-1.45550781 13.00894531 -1.47742188 13.92804688 -1.5 14.875 C-1.54352485 16.68512187 -1.59531114 18.49506819 -1.65625 20.3046875 C-1.67494141 21.10890137 -1.69363281 21.91311523 -1.71289062 22.74169922 C-2.02538337 25.1996566 -2.77467106 26.86301166 -4 29 C-4.11643304 25.10441912 -4.18732909 21.20928742 -4.25 17.3125 C-4.28351563 16.20970703 -4.31703125 15.10691406 -4.3515625 13.97070312 C-4.45112665 5.7317694 -4.45112665 5.7317694 -1.984375 1.73046875 C-1.32953125 1.15941406 -0.6746875 0.58835937 0 0 Z " fill="#A33C18" transform="translate(470,339)"/>
<path d="M0 0 C0.33 0 0.66 0 1 0 C1 6.6 1 13.2 1 20 C0.67 20 0.34 20 0 20 C-0.33 17.69 -0.66 15.38 -1 13 C-1.66 14.32 -2.32 15.64 -3 17 C-3 12.71 -3 8.42 -3 4 C-2.01 3.67 -1.02 3.34 0 3 C0 2.01 0 1.02 0 0 Z " fill="#EBCAC3" transform="translate(579,460)"/>
<path d="M0 0 C0.66 0.33 1.32 0.66 2 1 C-2.93335002 5.41808902 -7.87997323 9.79895239 -13 14 C-13.66 13.67 -14.32 13.34 -15 13 C-5.77448747 3.40546697 -5.77448747 3.40546697 0 0 Z " fill="#A33A17" transform="translate(187,151)"/>
<path d="M0 0 C0 3 0 3 -1.96875 5.26171875 C-2.8040625 6.06222656 -3.639375 6.86273437 -4.5 7.6875 C-5.3353125 8.49574219 -6.170625 9.30398438 -7.03125 10.13671875 C-7.6809375 10.75160156 -8.330625 11.36648438 -9 12 C-9.66 11.67 -10.32 11.34 -11 11 C-7.6189962 6.86378916 -4.33409466 3.18683431 0 0 Z " fill="#A6411F" transform="translate(182,615)"/>
<path d="M0 0 C0.66 0.66 1.32 1.32 2 2 C0.71937515 3.7074998 -0.61767557 5.37373596 -2 7 C-2.66 7 -3.32 7 -4 7 C-3.43628586 3.73045798 -2.50037734 2.17424117 0 0 Z " fill="#AF3A15" transform="translate(502,830)"/>
<path d="M0 0 C3 1 3 1 4 3 C4.99 3.66 5.98 4.32 7 5 C6.01 5.495 6.01 5.495 5 6 C2.5249829 4.88568235 0.32116581 3.41849022 -2 2 C-1.34 1.34 -0.68 0.68 0 0 Z " fill="#F6671F" transform="translate(557,820)"/>
<path d="M0 0 C0.33 0.66 0.66 1.32 1 2 C-1.12780579 4.34058637 -3.11562221 5.70700306 -6 7 C-4.60667426 3.63279613 -3.0210714 2.0140476 0 0 Z " fill="#A63717" transform="translate(245,222)"/>
</svg>
