<?xml version="1.0" encoding="UTF-8"?>
<svg version="1.1" xmlns="http://www.w3.org/2000/svg" width="1024" height="1024">
<path d="M0 0 C337.92 0 675.84 0 1024 0 C1024 337.92 1024 675.84 1024 1024 C686.08 1024 348.16 1024 0 1024 C0 686.08 0 348.16 0 0 Z " fill="#FEFEFD" transform="translate(0,0)"/>
<path d="M0 0 C337.92 0 675.84 0 1024 0 C1024 337.92 1024 675.84 1024 1024 C686.08 1024 348.16 1024 0 1024 C0 686.08 0 348.16 0 0 Z M88 86 C87.20335937 86.82371094 87.20335937 86.82371094 86.390625 87.6640625 C66.79568355 108.73295972 66.53765332 135.24766906 66.60219461 162.32739808 C66.60805145 166.18745849 66.59642113 170.04747561 66.58713293 173.90752387 C66.57327583 180.65913632 66.57047091 187.41068177 66.57509232 194.16230583 C66.58194688 204.202686 66.57163828 214.24299876 66.55813476 224.28336955 C66.53326511 243.26171814 66.52870378 262.24003853 66.53060073 281.21840081 C66.53197536 295.87647753 66.52814852 310.53454451 66.52067566 325.19261932 C66.51962531 327.30073167 66.51857769 329.40884402 66.5175328 331.51695637 C66.51701345 332.56346188 66.51649411 333.60996738 66.51595903 334.68818517 C66.51543888 335.73663587 66.51491874 336.78508658 66.51438284 337.86530852 C66.51385885 338.91555277 66.51333486 339.96579702 66.51279498 341.04786685 C66.49821798 370.57441333 66.48992644 400.10095625 66.49454498 429.62750626 C66.49471694 430.73991389 66.49488889 431.85232153 66.49506606 432.99843849 C66.49595491 438.63618194 66.49689972 444.27392537 66.49786407 449.91166881 C66.4980551 451.03128333 66.49824613 452.15089786 66.49844296 453.3044401 C66.49883005 455.56857072 66.49922038 457.83270134 66.49961393 460.09683196 C66.50558352 495.32418434 66.49014491 530.55147102 66.45800781 565.77880859 C66.42190689 605.3844325 66.40260136 644.99001476 66.40754652 684.59565616 C66.40801648 688.82114331 66.40842673 693.04663046 66.40879822 697.27211761 C66.4089006 698.31248984 66.40900299 699.35286206 66.40910848 700.42476072 C66.41030175 716.10864507 66.39835663 731.7924843 66.37965393 747.47635651 C66.35838597 765.31973034 66.35459877 783.16300972 66.37395352 801.0063878 C66.38425547 810.98240114 66.38087168 820.95818385 66.35742267 830.93417619 C66.34312659 837.61011217 66.34723385 844.28587859 66.36586843 850.9618033 C66.37595873 854.757394 66.37851436 858.55253788 66.35854775 862.34809962 C66.21606165 891.43381009 69.93487333 917.15249342 90.23828125 939.40234375 C95.26965773 944.13482658 101.05247077 947.53949016 107 951 C107.69738281 951.43183594 108.39476562 951.86367188 109.11328125 952.30859375 C115.74136306 956.08557163 123.63848012 957.30302626 131 959 C131.62499388 959.17952785 132.24998776 959.35905571 132.89392085 959.5440238 C135.41337718 960.08949813 137.72784739 960.12623008 140.30664134 960.1276505 C141.93302042 960.13217445 141.93302042 960.13217445 143.59225565 960.1367898 C144.78524615 960.13502033 145.97823666 960.13325086 147.20737839 960.13142776 C149.11412921 960.13450672 149.11412921 960.13450672 151.05940026 960.13764787 C154.60596253 960.14322505 158.15250071 960.14254018 161.69906596 960.14087028 C165.55078573 960.14014053 169.40249863 960.14515896 173.25421548 960.1494453 C180.9020202 960.15703465 188.54981794 960.15921883 196.19762603 960.15977435 C205.35512612 960.16068709 214.51261972 960.16735206 223.67011702 960.17412117 C245.80814545 960.19019437 267.9461732 960.19608632 290.08420641 960.20086992 C300.55659331 960.20320494 311.02897967 960.20680753 321.50136614 960.2105653 C357.34642886 960.22340309 393.19149128 960.2341212 429.03655624 960.2375679 C431.28751159 960.23778953 433.53846694 960.23801132 435.78942229 960.23823325 C438.04584258 960.23845389 440.30226287 960.23867438 442.55868316 960.2388947 C447.08550882 960.23933726 451.61233449 960.23978437 456.13916016 960.24023438 C457.82274944 960.24039846 457.82274944 960.24039846 459.54035063 960.24056586 C495.92365366 960.24419547 532.30693674 960.26011072 568.69023212 960.28342474 C607.15197258 960.30802554 645.61370163 960.3217409 684.07545018 960.32293582 C688.29852248 960.32310727 692.52159476 960.3233227 696.74466705 960.32357025 C697.7845146 960.32362602 698.82436214 960.32368179 699.89572021 960.32373925 C716.62562662 960.32488961 733.35551258 960.33591053 750.08541208 960.35045731 C766.90624315 960.36483005 783.72704802 960.36805493 800.54788354 960.36001733 C810.53816041 960.35556443 820.52835265 960.35940807 830.51861839 960.37525584 C837.19813518 960.38502052 843.87759282 960.38381336 850.55710911 960.37381961 C854.35899837 960.36843824 858.16072535 960.3676828 861.96260104 960.38032833 C889.85848298 960.4670979 914.25669589 958.33394135 935.75 938.8125 C953.63425643 919.59359757 959.35283607 892.30192738 959.25447559 866.84160519 C959.25768207 865.58909986 959.26088855 864.33659453 959.26419219 863.0461345 C959.27273434 859.59846856 959.26901855 856.15091282 959.26313647 852.70324543 C959.25893904 848.94130042 959.26638339 845.17937453 959.27228898 841.41743428 C959.28102717 834.8334284 959.28237159 828.24945364 959.27878571 821.66544342 C959.27346723 811.8742436 959.27958557 802.08307377 959.28786864 792.2918772 C959.30309542 773.78442102 959.30481501 755.27697854 959.30234561 736.76951741 C959.30051155 722.47416677 959.30227494 708.17882061 959.30657005 693.88347054 C959.30717246 691.82821212 959.30777366 689.7729537 959.30837366 687.71769528 C959.30928093 684.62042759 959.3101896 681.5231599 959.31110601 678.42589222 C959.31953379 649.63418295 959.3238725 620.84247537 959.31969929 592.05076504 C959.31954291 590.9657337 959.31938654 589.88070236 959.31922542 588.76279128 C959.31841966 583.26368979 959.31757389 577.76458831 959.31671212 572.26548683 C959.31654103 571.17339114 959.31636994 570.08129544 959.31619367 568.95610594 C959.31584701 566.74762302 959.31549848 564.53914011 959.31514808 562.33065719 C959.30979242 527.97653149 959.31771762 493.62243146 959.33618164 459.26831055 C959.35691306 420.65044659 959.36762208 382.03259853 959.36360615 343.4147287 C959.36321082 339.29423241 959.36284928 335.17373612 959.36250877 331.05323982 C959.36241804 330.03870796 959.36232731 329.02417609 959.36223383 327.97890084 C959.36106941 312.68479943 959.36770438 297.39071413 959.37832069 282.09661674 C959.39038834 264.69419216 959.39191373 247.29180295 959.37953053 229.88937782 C959.37291657 220.16005136 959.37449908 210.43080956 959.38811904 200.70148992 C959.39639597 194.18988412 959.39362411 187.67834138 959.38214377 181.16674065 C959.37591926 177.46503399 959.37420285 173.76349187 959.38600711 170.06179505 C959.47472031 140.17108473 958.2263247 108.11604325 936.41064453 85.14916992 C927.05326505 75.84103981 916.3532367 70.22585168 904 66 C902.94886782 65.63053395 901.89773564 65.2610679 900.81475097 64.8804059 C887.43861614 60.88203628 873.75439074 61.43320335 859.92222222 61.48612978 C856.08110328 61.49635697 852.24004815 61.48320538 848.39893848 61.47315645 C841.67907961 61.45876234 834.95934946 61.45911536 828.23948479 61.46934509 C818.24643547 61.48451604 808.25349414 61.47671878 798.26044548 61.46451186 C780.40890329 61.44347631 762.55741846 61.4452637 744.70587085 61.45682751 C729.08161073 61.46689854 713.45737161 61.46951245 697.8331089 61.46473694 C696.79581967 61.4644314 695.75853045 61.46412586 694.68980821 61.46381106 C690.47884537 61.46256565 686.26788254 61.46129205 682.05691972 61.459972 C642.56933184 61.44774113 603.08178043 61.45882123 563.59419818 61.48035959 C528.53486583 61.49933722 493.47559161 61.49764644 458.41625977 61.47851562 C419.00439923 61.45708153 379.59257092 61.44861282 340.18070537 61.46096468 C335.97658305 61.46224749 331.77246073 61.46349886 327.56833839 61.46473694 C326.53321743 61.46505325 325.49809646 61.46536956 324.43160819 61.46569545 C308.82171825 61.47023933 293.21185165 61.46493536 277.60196495 61.45481873 C259.84488576 61.44336772 242.08787278 61.44627057 224.33080181 61.4679417 C214.40106532 61.47966148 204.47147229 61.48049043 194.54173961 61.465357 C187.89916112 61.45635268 181.25669705 61.46203215 174.61413544 61.47937608 C170.83599035 61.48884138 167.05812911 61.49225015 163.2799935 61.47775215 C134.58053892 61.37606855 108.56787977 63.80834024 88 86 Z " fill="#F74701" transform="translate(0,0)"/>
<path d="M0 0 C1.78865403 -0.01169993 1.78865403 -0.01169993 3.61344248 -0.02363622 C6.92032342 -0.0401331 10.22578502 -0.034193 13.53257978 -0.01870513 C17.09983356 -0.00739782 20.66696281 -0.02485126 24.23419189 -0.03860474 C31.22136435 -0.06084916 38.20826841 -0.05603052 45.19545143 -0.04154153 C50.87417472 -0.03025307 56.55282274 -0.02871668 62.23155403 -0.03416061 C63.03954973 -0.03492678 63.84754542 -0.03569294 64.68002583 -0.03648233 C66.3214278 -0.03808095 67.96282974 -0.03970201 69.60423166 -0.04134528 C84.99955325 -0.05560654 100.39472603 -0.03920467 115.79002322 -0.01234345 C129.00002839 0.00999147 142.20981386 0.00611917 155.41981506 -0.01693726 C170.7581971 -0.04369596 186.09644864 -0.05422874 201.43485075 -0.03887594 C203.07054585 -0.03728319 204.70624097 -0.03571133 206.34193611 -0.03416061 C207.54913759 -0.03300355 207.54913759 -0.03300355 208.78072698 -0.03182311 C214.45214633 -0.02750599 220.12348292 -0.03479298 225.79488945 -0.04655838 C232.707295 -0.06058292 239.61941668 -0.05678482 246.53178971 -0.03015466 C250.05871575 -0.01701488 253.58516854 -0.01186606 257.11209106 -0.02840042 C260.93510234 -0.04605173 264.75733892 -0.0249742 268.58032227 0 C269.69559152 -0.01115361 270.81086078 -0.02230722 271.95992607 -0.03379881 C280.34850416 0.07280444 280.34850416 0.07280444 284.04312897 2.4439106 C287.53003396 7.25958897 287.17527669 11.51519853 287.09536743 17.32595825 C287.10261068 18.52318339 287.10985392 19.72040853 287.11731666 20.95391321 C287.13130345 24.27438073 287.11836479 27.59276975 287.09402382 30.91304708 C287.07428355 34.49458257 287.08914014 38.07599587 287.09967041 41.657547 C287.1147955 48.67253098 287.09787331 55.68709069 287.07011951 62.70202196 C287.03896722 70.86953272 287.03917808 79.03695174 287.04063725 87.20451075 C287.04213922 101.77661767 287.01465183 116.3485271 286.97108459 130.92056274 C286.92882208 145.06350299 286.90757227 159.20626941 286.90956116 173.34927368 C286.90968103 174.22032275 286.90980089 175.09137182 286.9099244 175.98881632 C286.91004546 176.858353 286.91016652 177.72788968 286.91029125 178.62377596 C286.91236065 194.72037992 286.89469139 210.81690996 286.86783161 226.91348997 C286.85878081 232.60789199 286.85559272 238.30228043 286.8542347 243.99668884 C286.85218852 250.93542709 286.838798 257.87404076 286.81123627 264.81272614 C286.79738249 268.35358969 286.78824563 271.8942939 286.79201889 275.43518639 C286.79590879 279.27154227 286.77657001 283.10757738 286.75479126 286.94387817 C286.75943707 288.06595122 286.76408287 289.18802426 286.76886946 290.34409952 C286.75919612 291.37160617 286.74952278 292.39911283 286.73955631 293.45775604 C286.73744304 294.34321153 286.73532976 295.22866702 286.73315245 296.14095449 C286.2634421 299.22775852 285.15602135 301.10466272 283.35365295 303.63491821 C277.95427071 307.55113414 272.18020046 307.0632093 265.78359985 307.03605652 C264.61143274 307.04285319 263.43926562 307.04964986 262.23157829 307.05665249 C258.98630092 307.07234049 255.74133768 307.07461034 252.4960345 307.07106936 C248.99286965 307.07045638 245.4897788 307.08702251 241.98664856 307.10124207 C235.12702164 307.12614126 228.26747206 307.13440561 221.40780372 307.1360792 C215.83209903 307.13750541 210.25641982 307.14367329 204.68072319 307.15318108 C188.86974813 307.17959333 173.05883412 307.19344008 157.24783684 307.19118965 C156.39580059 307.19106979 155.54376434 307.19094992 154.66590881 307.19082642 C153.81283156 307.19070377 152.9597543 307.19058113 152.08082622 307.19045477 C138.25069803 307.18923501 124.42081472 307.21795493 110.59075738 307.26024152 C96.38739028 307.30332672 82.18414265 307.3240525 67.98070854 307.32146019 C60.00756767 307.32046418 52.03468364 307.3287096 44.06160164 307.36099434 C37.2744048 307.38830141 30.48758129 307.39484216 23.70035333 307.37446607 C20.23800243 307.36466628 16.77636788 307.36451191 13.31408501 307.39052582 C9.55897659 307.41361087 5.80575617 307.39980577 2.0506897 307.37663269 C0.95847014 307.39206338 -0.13374941 307.40749407 -1.25906652 307.42339236 C-6.96357286 307.34546781 -11.3207605 306.89669518 -15.44083792 302.67246777 C-17.99298285 298.35883658 -17.5952469 293.6241876 -17.52177429 288.74769592 C-17.53128309 287.54144926 -17.5407919 286.33520259 -17.55058885 285.09240299 C-17.56979371 281.75114365 -17.55764398 278.41267717 -17.53210163 275.07163775 C-17.51213774 271.46622854 -17.53253924 267.861016 -17.54780579 264.25561523 C-17.5712228 257.19594776 -17.55707435 250.13683195 -17.52986726 243.07719713 C-17.49938183 234.85695908 -17.50423567 226.63685579 -17.51009467 218.41657723 C-17.51916245 203.75071988 -17.49332695 189.08512617 -17.44908142 174.41934204 C-17.40614872 160.1861769 -17.3919922 145.95334499 -17.4080658 131.72012329 C-17.42552934 116.22204993 -17.42729146 100.72412757 -17.40148187 85.22606045 C-17.39874872 83.57382875 -17.39602238 81.92159704 -17.39330292 80.26936531 C-17.39194156 79.45642627 -17.39058021 78.64348723 -17.38917761 77.80591367 C-17.38055282 72.07491332 -17.38280214 66.34397567 -17.38895416 60.61297417 C-17.39599989 53.63027461 -17.38481001 46.64788052 -17.35044631 39.66525751 C-17.33332032 36.10201023 -17.32415613 32.53922002 -17.33658218 28.97594261 C-17.34975052 25.115383 -17.32424092 21.2556391 -17.29472351 17.39515686 C-17.30451288 16.26598404 -17.31430225 15.13681122 -17.32438827 13.97342104 C-17.2614084 9.41123313 -17.10848369 6.44958134 -14.83372021 2.43958569 C-9.96659705 -0.316144 -5.50594474 -0.05495405 0 0 Z " fill="#F64701" transform="translate(163.64634704589844,575.3650817871094)"/>
<path d="M0 0 C1.00698323 -0.00445784 2.01396645 -0.00891569 3.05146432 -0.01350862 C4.16602998 -0.01332426 5.28059563 -0.01313989 6.428936 -0.01294994 C7.60655809 -0.01662663 8.78418018 -0.02030332 9.99748778 -0.02409142 C13.27644651 -0.03322996 16.55537582 -0.03783052 19.8343451 -0.04048073 C23.36684465 -0.04437955 26.89932964 -0.05395819 30.43181992 -0.0626936 C38.96797795 -0.08247022 47.50413719 -0.09252584 56.04031241 -0.10142139 C60.05819821 -0.10580242 64.07608269 -0.11116971 68.09396744 -0.11641026 C81.44710771 -0.13342391 94.80024716 -0.14791858 108.15339661 -0.155159 C111.61981584 -0.15706895 115.08623506 -0.15898928 118.55265427 -0.16094494 C119.41423707 -0.16142868 120.27581987 -0.16191242 121.16351125 -0.16241082 C135.1238356 -0.17071295 149.08407431 -0.19605233 163.04436126 -0.22852562 C177.3707525 -0.26157933 191.69710019 -0.27960624 206.02352977 -0.28280324 C214.0698647 -0.28496993 222.11607477 -0.29374172 230.16237259 -0.31926441 C237.01440062 -0.34094842 243.86627346 -0.34903324 250.7183319 -0.33929763 C254.21482053 -0.33474614 257.71098881 -0.3366878 261.2074337 -0.35605907 C264.99776783 -0.37366299 268.78728401 -0.36672744 272.57761765 -0.35352612 C273.68326041 -0.36449536 274.78890318 -0.37546461 275.92805028 -0.38676625 C282.00949449 -0.33547523 285.66703371 0.00016686 290.25724411 4.13422108 C292.42364052 7.38381569 292.50801176 8.2663291 292.5117197 12.01843548 C292.5175519 13.03150985 292.52338409 14.04458421 292.52939302 15.08835781 C292.52561369 16.20458369 292.52183437 17.32080957 292.51794052 18.47086048 C292.52176607 19.65412611 292.52559162 20.83739174 292.52953309 22.05651391 C292.53808616 25.34661546 292.53762196 28.63649434 292.53335249 31.92658973 C292.53089192 35.4726901 292.53989113 39.01876389 292.54738998 42.56485462 C292.56015804 49.51445726 292.56192803 56.4640213 292.55958972 63.41363369 C292.55780862 69.06140757 292.55955173 74.7091697 292.56381416 80.35694218 C292.56440935 81.15994685 292.56500454 81.96295153 292.56561777 82.79028968 C292.56682949 84.42146642 292.56804362 86.05264316 292.56926014 87.6838199 C292.58014396 102.99130323 292.57796931 118.29876454 292.5718753 133.60624911 C292.56670632 147.61567115 292.57795957 161.62502366 292.59697352 175.63443194 C292.61633746 190.01170543 292.6246104 204.38894599 292.62085027 218.76623261 C292.6189359 226.84099466 292.62144853 234.91569752 292.6355648 242.99044895 C292.64746126 249.86516182 292.64890312 256.73977909 292.63677464 263.61449324 C292.63087346 267.12295733 292.62982042 270.63124641 292.64177704 274.13969898 C292.65458153 277.94109149 292.64420064 281.74221693 292.63146591 285.54361439 C292.6388402 286.65537883 292.64621448 287.76714327 292.65381223 288.91259754 C292.5860909 298.48167206 292.5860909 298.48167206 289.25724411 302.13422108 C284.59163259 306.37138392 278.699025 305.55427802 272.76275253 305.52190113 C271.58665072 305.52728667 270.41054891 305.53267221 269.19880766 305.53822094 C265.93792676 305.55005369 262.67737316 305.54842838 259.41648924 305.54105413 C255.89834123 305.53632681 252.3802482 305.54882842 248.86211777 305.55907154 C241.97126005 305.57627343 235.08049346 305.57709669 228.18961985 305.57185864 C222.58909417 305.56781832 216.98859545 305.56925885 211.38807106 305.5746069 C210.59117681 305.57535532 209.79428256 305.57610374 208.97324 305.57687484 C207.35438605 305.57840631 205.73553211 305.57994465 204.11667817 305.58148981 C188.93313725 305.59521986 173.74964785 305.5897736 158.5661081 305.5783046 C144.67386277 305.56837147 130.78175062 305.58131333 116.88952584 305.60523879 C102.62630818 305.62961818 88.36315257 305.63924053 74.09991449 305.63258606 C66.09164491 305.62909128 58.08347777 305.63134294 50.07522392 305.64883709 C43.25801877 305.66354459 36.44098819 305.66421363 29.62378652 305.64676618 C26.14551641 305.63824173 22.66755835 305.63614141 19.18930435 305.65141773 C15.41881248 305.66455207 11.64917397 305.65314569 7.87871933 305.63542652 C6.77901387 305.64503153 5.67930841 305.65463653 4.54627854 305.6645326 C-1.49595026 305.60594025 -5.2247446 305.31322367 -9.74275589 301.13422108 C-11.65197057 298.05922058 -11.99481943 295.7220419 -12.00281811 292.12975216 C-12.0098837 291.11530344 -12.01694929 290.10085472 -12.02422899 289.05566514 C-12.02181391 287.94303421 -12.01939882 286.83040329 -12.01691055 285.68405628 C-12.02214723 284.50064179 -12.02738391 283.3172273 -12.03277928 282.09795177 C-12.04520039 278.81204811 -12.04862244 275.52635831 -12.04818237 272.24044585 C-12.04982991 268.69706275 -12.06289514 265.15371868 -12.07437515 261.61035633 C-12.09722805 253.86250411 -12.10514588 246.11467928 -12.1102016 238.36679792 C-12.11345788 233.52971488 -12.1199799 228.6926398 -12.12720299 223.85556126 C-12.14676827 210.4645949 -12.16317324 197.07363595 -12.16607952 183.68265438 C-12.16626709 182.82569697 -12.16645466 181.96873957 -12.16664791 181.08581375 C-12.16701417 179.34853959 -12.16737786 177.61126543 -12.16773903 175.87399127 C-12.16792184 175.0116005 -12.16810465 174.14920974 -12.168293 173.26068592 C-12.16847355 172.39724351 -12.1686541 171.53380109 -12.16884012 170.64419375 C-12.17238296 156.64840264 -12.19941249 142.65276527 -12.23679089 128.6570275 C-12.27485441 114.28988597 -12.29423685 99.92282078 -12.29453903 85.5556277 C-12.295124 77.48806092 -12.30364128 69.42067761 -12.3325367 61.353158 C-12.35702436 54.48467818 -12.36435123 47.61644875 -12.34928917 40.7479371 C-12.3421097 37.24327158 -12.34302133 33.73910075 -12.36569977 30.23449039 C-12.38602872 26.43534217 -12.37568378 22.63748353 -12.35748672 18.83835316 C-12.37068669 17.73018368 -12.38388666 16.6220142 -12.39748663 15.48026383 C-12.30622577 7.16330753 -12.30622577 7.16330753 -9.32933521 3.46521282 C-5.92056235 0.39327092 -4.4620327 0.00913222 0 0 Z " fill="#F64702" transform="translate(587.7427558898926,140.86577892303467)"/>
<path d="M0 0 C1.00411653 -0.00384115 2.00823306 -0.00768229 3.04277736 -0.01163983 C4.15413419 -0.01077335 5.26549101 -0.00990687 6.41052532 -0.00901413 C8.17189147 -0.01347081 8.17189147 -0.01347081 9.96884078 -0.01801753 C13.23833066 -0.02521303 16.5077886 -0.02787803 19.77728522 -0.028615 C23.29953867 -0.03046267 26.82178067 -0.03800856 30.34402752 -0.04475021 C38.05060902 -0.05834603 45.75718533 -0.06436023 53.46377683 -0.06876087 C58.27370168 -0.07152126 63.08362452 -0.07575824 67.89354801 -0.08026505 C81.20465786 -0.09245947 94.51576609 -0.10275836 107.82688141 -0.10614014 C109.10539739 -0.10646949 109.10539739 -0.10646949 110.40974198 -0.10680549 C111.69135927 -0.10713291 111.69135927 -0.10713291 112.99886781 -0.10746694 C114.73029983 -0.10791041 116.46173185 -0.10835697 118.19316387 -0.10880661 C119.48144562 -0.10913875 119.48144562 -0.10913875 120.79575326 -0.10947761 C134.71470393 -0.11342627 148.63360226 -0.13088157 162.55253271 -0.15416613 C176.83484899 -0.17786619 191.117139 -0.19034138 205.39947528 -0.19150805 C213.42172003 -0.19242559 221.44389662 -0.19819753 229.46612263 -0.21632767 C236.29693601 -0.23171054 243.12766015 -0.2368599 249.95848755 -0.22858956 C253.44467185 -0.22467655 256.93067635 -0.22564413 260.41683865 -0.23964691 C264.19426895 -0.25227563 267.97123365 -0.2465387 271.74866009 -0.23606491 C272.85332475 -0.24412132 273.95798941 -0.25217772 275.09612876 -0.26047826 C284.33205595 -0.20033306 284.33205595 -0.20033306 288.27006817 3.13142776 C289.06166893 3.77392209 289.06166893 3.77392209 289.86926162 4.42939609 C291.74826792 6.71245812 291.64694916 8.09193273 291.6503849 11.02846622 C291.65882484 12.04440729 291.66726478 13.06034835 291.67596048 14.10707551 C291.66995044 15.22651022 291.66394039 16.34594494 291.65774822 17.49930191 C291.66582653 19.27926734 291.66582653 19.27926734 291.67406803 21.09519166 C291.68592772 24.39486204 291.68426294 27.69402942 291.67690122 30.99368036 C291.67218376 34.55003695 291.68466688 38.10633861 291.69491863 41.66267776 C291.71214114 48.632684 291.71293937 55.60260022 291.70770573 62.57262222 C291.7036685 68.23755491 291.70510226 73.90246094 291.71045399 79.56739235 C291.71120241 80.37288366 291.71195083 81.17837498 291.71272193 82.00827512 C291.71425338 83.64452314 291.71579172 85.28077115 291.7173369 86.91701915 C291.73107491 102.2727094 291.72561557 117.62834874 291.71415169 132.98403784 C291.7042222 147.03483966 291.71715273 161.08550974 291.74108588 175.13629124 C291.76546541 189.55764717 291.77508731 203.97894172 291.76843315 218.40031785 C291.76493783 226.49916074 291.76719338 234.59790233 291.78468418 242.69672966 C291.79939204 249.59266789 291.80006047 256.48843355 291.78261327 263.38436834 C291.77408828 266.90312861 291.77198971 270.42158043 291.78726482 273.94032478 C291.80361769 277.75457612 291.78899306 281.56834921 291.77127361 285.38260269 C291.78087862 286.49534524 291.79048363 287.60808778 291.80037969 288.7545498 C291.74220432 294.82303437 291.47708713 298.5982198 287.27006817 303.13142776 C284.2116547 305.02604414 281.8993981 305.38232067 278.32806873 305.38590336 C277.3275536 305.39173555 276.32703846 305.39756775 275.29620469 305.40357667 C274.19913756 305.39979735 273.10207043 305.39601802 271.97175884 305.39212418 C270.80467856 305.39594972 269.63759828 305.39977527 268.43515193 305.40371674 C265.19487612 305.41225981 261.95474466 305.41180934 258.7144649 305.40753615 C255.22016973 305.4050729 251.72590141 305.41407812 248.23161602 305.42157364 C241.38542133 305.43433416 234.53926583 305.43611262 227.69306125 305.43377338 C222.12874851 305.43199146 216.56444769 305.43373714 211.00013638 305.43799782 C209.81291785 305.4388906 209.81291785 305.4388906 208.60171511 305.43980142 C206.99389363 305.44101316 205.38607215 305.44222729 203.77825068 305.4434438 C188.69391846 305.45432468 173.60960858 305.45215433 158.5252751 305.44605895 C144.72352062 305.44089008 130.92183673 305.45214346 117.12009622 305.47115717 C102.95183845 305.4905263 88.78361408 305.49879315 74.61534297 305.49503392 C66.65961216 305.49312037 58.70394142 305.49562434 50.7482214 305.50974846 C43.9749368 305.52165151 37.20174925 305.52307934 30.42846335 305.51095829 C26.97252441 305.5050618 23.51676305 305.50399121 20.06083584 305.51596069 C16.31450624 305.5263704 12.56865678 305.51837334 8.82234478 305.50564957 C7.72973909 305.51302385 6.63713341 305.52039814 5.51141846 305.52799588 C0.0539886 305.48889078 -4.10382089 305.37115629 -8.72993183 302.13142776 C-11.48418098 299.10201725 -12.10580526 297.15890433 -12.11304188 293.09293079 C-12.12209852 292.07089859 -12.13115516 291.04886638 -12.14048624 289.9958635 C-12.13515831 288.87476856 -12.12983039 287.75367362 -12.12434101 286.59860611 C-12.13043211 285.40631895 -12.13652322 284.21403179 -12.1427989 282.98561472 C-12.15658454 279.67487778 -12.15687526 276.36463603 -12.15142393 273.05390751 C-12.14875702 269.4839485 -12.16327909 265.91405333 -12.17551899 262.34412003 C-12.19658925 255.34986099 -12.20111295 248.35568483 -12.1993311 241.36139781 C-12.19802433 235.67741009 -12.20182326 229.99344826 -12.20925617 224.30946541 C-12.21135533 222.67324446 -12.21345293 221.03702351 -12.21554899 219.40080255 C-12.21659252 218.58645427 -12.21763605 217.77210599 -12.2187112 216.93308049 C-12.23761983 201.52639232 -12.2365614 186.11975176 -12.22974187 170.7130568 C-12.22416531 156.61312002 -12.24499548 142.51336489 -12.27810234 128.41347057 C-12.31182017 113.94123531 -12.3270101 99.4690871 -12.32238531 84.99681181 C-12.32013876 76.86948289 -12.3254108 68.74232188 -12.3502779 60.61502647 C-12.37126641 53.69636879 -12.37490754 46.77797109 -12.35597831 39.85930283 C-12.34680528 36.32844186 -12.34572436 32.79806593 -12.36633396 29.26724243 C-12.38841734 25.44167017 -12.37186429 21.61682728 -12.35139179 17.79123306 C-12.36390964 16.67236885 -12.37642749 15.55350463 -12.38932467 14.40073544 C-12.30270641 6.88273672 -12.30270641 6.88273672 -9.31609058 2.96518993 C-5.83994906 0.50036955 -4.19842386 0.00600561 0 0 Z " fill="#F64701" transform="translate(158.72993183135986,140.86857223510742)"/>
<path d="M0 0 C0.87870805 -0.00709439 1.75741611 -0.01418877 2.66275167 -0.02149814 C5.60719637 -0.03910047 8.55032493 -0.02096192 11.49475098 -0.00291443 C13.60558168 -0.00805238 15.7164081 -0.01533272 17.82722473 -0.02459717 C23.56071372 -0.04313497 29.29373857 -0.0301573 35.02720833 -0.01050687 C41.0240039 0.00586114 47.02076964 -0.00293069 53.01757812 -0.00802612 C63.0886579 -0.01254913 73.15955208 0.00333576 83.23059082 0.03126526 C94.87830277 0.06331796 106.52567994 0.06330202 118.17341566 0.04605049 C129.3727587 0.03019326 140.57197887 0.03691383 151.77131653 0.0539875 C156.53997564 0.06086468 161.30853646 0.05981867 166.07719421 0.05244255 C171.69153161 0.04478816 177.30548745 0.05687854 182.91975975 0.08429146 C184.98172561 0.09118521 187.04372705 0.09126271 189.10569191 0.08407593 C191.91764987 0.07540361 194.72842433 0.09129975 197.5402832 0.11352539 C198.35886228 0.10528462 199.17744136 0.09704386 200.02082586 0.08855337 C203.81207786 0.14397077 206.02667463 0.47253573 209.25325775 2.53535557 C212.50302673 5.90750089 212.40601471 7.96472154 212.44714355 12.55909729 C212.45997879 13.80411514 212.47281403 15.049133 212.48603821 16.33187866 C212.49420588 17.69757185 212.50164956 19.06326953 212.50842285 20.42897034 C212.51249838 21.11594687 212.51657391 21.80292339 212.52077293 22.51071739 C212.54163336 26.14744644 212.55593464 29.78413776 212.56530762 33.4209137 C212.57636685 37.17374917 212.61076019 40.92599083 212.65047932 44.67861652 C212.67665071 47.5671599 212.68499989 50.45556197 212.6885891 53.34421349 C212.69345449 54.72729181 212.70506734 56.11036384 212.72362709 57.49332619 C212.74802259 59.43177084 212.74463331 61.37050441 212.7401123 63.30909729 C212.74891167 64.96217644 212.74891167 64.96217644 212.75788879 66.64865112 C212.1565239 70.32225408 210.83171189 71.97869591 208.2701416 74.62818909 C205.63963386 75.94344296 203.68855255 75.75587751 200.74160767 75.75949097 C198.97918228 75.76550323 198.97918228 75.76550323 197.18115234 75.77163696 C195.23770935 75.77084389 195.23770935 75.77084389 193.25500488 75.77003479 C191.88190601 75.77306564 190.50880813 75.77658689 189.13571167 75.78056335 C186.17497775 75.7884583 183.21425592 75.7935995 180.25351334 75.79685402 C175.57272899 75.80275776 170.89202093 75.81929187 166.21127319 75.8381958 C164.60965924 75.84453334 163.00804524 75.85085896 161.4064312 75.85717297 C160.60428806 75.86033878 159.80214492 75.86350459 158.97569442 75.86676633 C148.07597289 75.90886715 137.17628668 75.94182366 126.27648926 75.95411682 C118.92748809 75.96249052 111.57867548 75.98495541 104.22976863 76.02347249 C100.33955643 76.04325688 96.44962624 76.05562995 92.5593605 76.0506382 C88.90008868 76.04600008 85.24135163 76.05975035 81.58218765 76.0876503 C79.59821162 76.0978806 77.61416449 76.08829584 75.63018799 76.07815552 C74.44959808 76.09062317 73.26900818 76.10309082 72.05264282 76.11593628 C71.02651949 76.11832463 70.00039616 76.12071299 68.94317818 76.12317371 C65.47293497 76.77880491 64.31282036 77.7670659 62.2701416 80.62818909 C61.68041797 83.4160788 61.68041797 83.4160788 61.7848053 86.5423584 C61.77477478 88.35722496 61.77477478 88.35722496 61.76454163 90.20875549 C61.7772284 91.54640514 61.79025557 92.88405159 61.80358887 94.22169495 C61.80304005 95.63287535 61.80066485 97.04405605 61.79660034 98.45523071 C61.79142448 101.49245291 61.79849411 104.52931417 61.81485176 107.5664959 C61.83995856 112.36960313 61.83368952 117.17235358 61.82237244 121.97549438 C61.79916587 133.9053998 61.8176018 145.83520249 61.84387207 157.76509094 C61.86381544 167.0367162 61.8724016 176.30805679 61.84693569 185.57968241 C61.8351174 190.35380241 61.84677899 195.12711194 61.8761884 199.90114772 C61.88944891 202.87221207 61.88202234 205.84296248 61.86890793 208.81401634 C61.86705218 210.19067224 61.87376064 211.56737066 61.88971138 212.94393539 C62.01795499 224.65164759 62.01795499 224.65164759 58.8578949 227.92337036 C54.88026069 230.54384631 52.75884862 230.76997435 47.98449707 230.83351135 C47.34046936 230.84341095 46.69644165 230.85331055 46.03289795 230.86351013 C43.90107925 230.89513408 41.76923825 230.91988596 39.6373291 230.94459534 C38.16044531 230.9651641 36.68356742 230.98616056 35.20669556 231.00756836 C31.31708549 231.06279707 27.42742224 231.11220278 23.53771973 231.16041565 C19.56957253 231.21062486 15.60150271 231.26631394 11.63342285 231.32154846 C3.84572794 231.4291398 -3.94203126 231.53058257 -11.7298584 231.62818909 C-13.12451992 234.41751212 -12.86228633 236.71379939 -12.8717041 239.83448792 C-12.87873856 241.13956802 -12.88577301 242.44464813 -12.89302063 243.78927612 C-12.89483652 244.48903376 -12.89665241 245.18879139 -12.89852333 245.9097538 C-12.90568769 248.09990645 -12.92135434 250.28983491 -12.93986511 252.47991943 C-12.99233226 258.7074524 -13.04029944 264.93486374 -13.05578613 271.16261292 C-13.06587849 274.97122598 -13.09523513 278.77927674 -13.13710594 282.58766747 C-13.14940473 284.03764781 -13.15453923 285.48770763 -13.15230751 286.93773842 C-13.14994993 288.96978821 -13.17433891 291.00181539 -13.1998291 293.03370667 C-13.20862846 294.76672783 -13.20862846 294.76672783 -13.21760559 296.53475952 C-13.84450998 300.32055543 -15.03325654 301.93648728 -17.7298584 304.62818909 C-21.02045817 306.91176566 -23.94238471 306.89125322 -27.88781738 306.91871643 C-29.13268417 306.93147614 -30.37755096 306.94423584 -31.66014099 306.9573822 C-33.01540979 306.96043962 -34.37068068 306.96266751 -35.72595215 306.96412659 C-37.12073401 306.97055643 -38.51551453 306.97728493 -39.91029358 306.98429871 C-42.8313815 306.99626177 -45.75235123 306.99998048 -48.67346191 306.99879456 C-52.41059121 306.99859126 -56.14696092 307.02590713 -59.88391018 307.06033897 C-62.76389526 307.08260989 -65.64369747 307.08663208 -68.52375984 307.0855751 C-69.9012419 307.08793026 -71.27872906 307.09674912 -72.65612602 307.11223984 C-74.58481884 307.13190231 -76.51373528 307.12353858 -78.44250488 307.11402893 C-79.53852524 307.11687897 -80.63454559 307.119729 -81.76377869 307.12266541 C-85.44739828 306.50856773 -87.0685321 305.20020352 -89.7298584 302.62818909 C-92.32098921 298.74149287 -92.02004464 295.49588731 -92.01074219 290.98698425 C-92.01668443 290.09365084 -92.02262668 289.20031743 -92.02874899 288.27991331 C-92.04614836 285.27438565 -92.04914154 282.26901708 -92.05212402 279.26344299 C-92.0613785 277.11350157 -92.07142756 274.96356343 -92.08221436 272.81362915 C-92.10848235 266.96448534 -92.12135581 261.11538746 -92.13023567 255.26619387 C-92.13609316 251.61425308 -92.14430195 247.96232492 -92.15324402 244.31039047 C-92.1805975 232.8911023 -92.19992977 221.47184288 -92.2076478 210.05252421 C-92.21661428 196.85758588 -92.25173267 183.66306141 -92.30964899 170.46824896 C-92.35283325 160.27710319 -92.37305366 150.08607407 -92.37573004 139.89483774 C-92.37782944 133.80408038 -92.38971416 127.71371196 -92.42536926 121.62305069 C-92.45824667 115.89541412 -92.46268356 110.16846058 -92.44509125 104.44076347 C-92.443546 102.33684273 -92.45229532 100.23288589 -92.47200775 98.12905693 C-92.4973199 95.25967111 -92.48576955 92.39272798 -92.46484375 89.52336121 C-92.48901296 88.27010054 -92.48901296 88.27010054 -92.51367044 86.99152148 C-92.42015155 81.52097125 -92.42015155 81.52097125 -90.46515453 78.99249989 C-86.59128467 75.58162902 -83.60025829 74.99582467 -78.53112793 74.96876526 C-77.83774826 74.95828156 -77.14436859 74.94779785 -76.42997742 74.93699646 C-74.15707884 74.90838567 -71.88571625 74.91452057 -69.6126709 74.92115784 C-68.02938949 74.90803414 -66.4461248 74.89272785 -64.86288452 74.87533569 C-60.71015559 74.83555055 -56.55786528 74.82529951 -52.40496826 74.82130432 C-48.16156768 74.81196053 -43.9184235 74.77453927 -39.6751709 74.73951721 C-31.36006192 74.67500754 -23.04520591 74.64171332 -14.7298584 74.62818909 C-14.72843338 73.77485489 -14.72700836 72.92152069 -14.72554016 72.04232788 C-14.70769839 63.99388146 -14.66605035 55.94598421 -14.59776783 47.8978014 C-14.56350077 43.76024971 -14.53838838 39.62306712 -14.53430176 35.48536682 C-14.53001806 31.49092498 -14.50155083 27.49731572 -14.45642662 23.50313377 C-14.44345366 21.98059123 -14.43914328 20.45794903 -14.44370461 18.93535805 C-14.44861272 16.79926189 -14.42251687 14.66559727 -14.38928223 12.52980042 C-14.38262039 11.31512589 -14.37595856 10.10045135 -14.36909485 8.84896851 C-12.75529077 0.71785056 -7.10236746 -0.10269221 0 0 Z " fill="#F64701" transform="translate(667.7298583984375,575.3718109130859)"/>
<path d="M0 0 C1.31933029 -0.00554901 2.63866058 -0.01109802 3.99797058 -0.01681519 C7.60555346 -0.03102978 11.21237109 -0.01403617 14.81988072 0.00946999 C18.5998421 0.0296173 22.3797729 0.02369749 26.15977478 0.0213623 C32.50573304 0.02141583 38.85139307 0.04114517 45.19726562 0.07324219 C52.5296191 0.11014892 59.86158228 0.11891509 67.19401652 0.11194468 C74.25483463 0.10563587 81.31551919 0.11639989 88.37631035 0.13591003 C91.37819767 0.14407573 94.38001665 0.14679513 97.38191414 0.1452179 C101.5738197 0.14417441 105.76521226 0.168367 109.95703125 0.1953125 C111.20132904 0.1923819 112.44562683 0.18945129 113.72763062 0.18643188 C115.44142159 0.20345657 115.44142159 0.20345657 117.18983459 0.2208252 C118.18034348 0.22455391 119.17085238 0.22828262 120.19137669 0.23212433 C123.45748489 0.69174074 125.29558275 1.6227901 127.91381836 3.61523438 C130.14002433 6.76051536 130.1705869 9.54363985 130.18797302 13.33285522 C130.19794815 14.49925034 130.20792328 15.66564545 130.21820068 16.86738586 C130.21886536 18.14333115 130.21953003 19.41927643 130.22021484 20.73388672 C130.2278382 22.09418695 130.236266 23.45448288 130.24543762 24.81477356 C130.26737146 28.5069789 130.27617992 32.19910144 130.28126407 35.89136457 C130.28490877 38.19905674 130.2911494 40.50672726 130.29826546 42.81441116 C130.32275547 50.86782025 130.33581101 58.92116496 130.33935547 66.97460938 C130.34299108 74.47738721 130.37288904 81.97975606 130.41476005 89.48240888 C130.44946627 95.92755482 130.46490396 102.37256523 130.4656015 108.81780398 C130.46639418 112.66566773 130.47512769 116.51311474 130.50359917 120.36088181 C130.52978629 123.98081178 130.53198235 127.59997966 130.51594353 131.21996117 C130.51326625 133.17736473 130.53530808 135.13475348 130.55813599 137.09202576 C130.47818002 146.68999898 130.47818002 146.68999898 127.56385803 150.38882446 C123.82352572 153.53123513 121.18827464 153.74192489 116.46157837 153.7624054 C115.32876938 153.7695607 114.19596039 153.776716 113.02882385 153.78408813 C111.7851152 153.78677704 110.54140656 153.78946594 109.26000977 153.79223633 C107.2963018 153.80209312 107.2963018 153.80209312 105.29292297 153.81214905 C100.95042137 153.83317032 96.60791947 153.84354801 92.26538086 153.85351562 C90.77002316 153.85756358 89.27466564 153.86168051 87.77930832 153.86586571 C80.75538397 153.88491129 73.7314701 153.89914496 66.7075249 153.90747768 C58.5997293 153.91725523 50.49220633 153.94359064 42.38450682 153.98397857 C36.11690177 154.01412913 29.84937494 154.02894544 23.58169878 154.03225869 C19.83841691 154.03460996 16.09542652 154.04358024 12.35222244 154.06871986 C8.17677861 154.09631041 4.00194517 154.09217276 -0.17358398 154.08520508 C-2.03307426 154.10442017 -2.03307426 154.10442017 -3.93013 154.12402344 C-5.06857864 154.11707962 -6.20702728 154.1101358 -7.37997437 154.10298157 C-8.36700537 154.10536992 -9.35403637 154.10775827 -10.3709774 154.110219 C-13.85602331 153.47489142 -15.54377322 152.02930855 -18.08618164 149.61523438 C-19.40735313 146.9728914 -19.22723036 144.97781441 -19.24681091 142.01750183 C-19.25685654 140.82716843 -19.26690216 139.63683502 -19.2772522 138.41043091 C-19.28308319 137.09767181 -19.28891418 135.78491272 -19.29492188 134.43237305 C-19.30445864 133.04119123 -19.31434972 131.6500118 -19.3245697 130.25883484 C-19.3559731 125.68365297 -19.37622239 121.1084528 -19.39477539 116.53320312 C-19.39807271 115.75512621 -19.40137003 114.9770493 -19.40476727 114.1753943 C-19.43554693 106.83912274 -19.46225781 99.50284713 -19.47918606 92.16652966 C-19.50110154 82.77854843 -19.54308984 73.39113851 -19.61262363 64.00338572 C-19.65984277 57.40459889 -19.68411671 50.80596632 -19.69138294 44.20701581 C-19.6963422 40.26459314 -19.71144742 36.32281417 -19.75112724 32.38057518 C-19.78797157 28.6711594 -19.79641157 24.9627555 -19.78312111 21.25319099 C-19.78320083 19.24423332 -19.81306481 17.23534592 -19.84381104 15.22662354 C-19.77437054 6.63861942 -19.77437054 6.63861942 -16.86050415 2.30549622 C-11.87691743 -0.73507426 -5.62071916 -0.06001011 0 0 Z " fill="#FEFDFD" transform="translate(673.086181640625,215.384765625)"/>
<path d="M0 0 C1.68453026 -0.00856522 1.68453026 -0.00856522 3.40309143 -0.01730347 C4.64104462 -0.01842133 5.8789978 -0.01953918 7.15446472 -0.02069092 C9.10332329 -0.02813828 9.10332329 -0.02813828 11.09155273 -0.03573608 C14.66190357 -0.04886892 18.2322356 -0.05530689 21.80260682 -0.05974674 C24.03288352 -0.06267637 26.26315507 -0.066781 28.49342918 -0.07125092 C35.47037381 -0.0849289 42.44730667 -0.09459377 49.42426378 -0.09845281 C57.47994981 -0.10293283 65.5354661 -0.12047679 73.59110051 -0.1494534 C79.81622408 -0.17106863 86.0412999 -0.18115702 92.2664606 -0.18249393 C95.98510838 -0.18354218 99.70359667 -0.18945405 103.42220497 -0.20731354 C107.57134423 -0.22685251 111.72012832 -0.22250591 115.86930847 -0.21600342 C117.10118896 -0.2252182 118.33306946 -0.23443298 119.60227966 -0.243927 C120.73375931 -0.23835785 121.86523895 -0.2327887 123.03100586 -0.22705078 C124.50243907 -0.22925062 124.50243907 -0.22925062 126.00359821 -0.2314949 C130.36694304 0.36904551 132.82556575 1.9948814 135.49466896 5.46782017 C136.87197791 8.50670167 137.08315774 10.57494253 137.08692932 13.90238953 C137.09538879 15.05333099 137.10384827 16.20427246 137.11256409 17.39009094 C137.10345505 19.27056374 137.10345505 19.27056374 137.09416199 21.18902588 C137.0982295 22.52976916 137.10357239 23.87050908 137.11009216 25.21124268 C137.12375168 28.84561491 137.11847253 32.47973123 137.10895491 36.11410785 C137.10134962 39.92164461 137.10840648 43.72915974 137.1131134 47.53669739 C137.1185691 53.93142624 137.11138497 60.3260511 137.09709167 66.72076416 C137.08077244 74.10702209 137.08604903 81.49303148 137.10257089 88.87928337 C137.11619944 95.22679308 137.11809854 101.57422812 137.11025488 107.92174774 C137.10558497 111.71022205 137.10493453 115.49857968 137.11486435 119.28704643 C137.12355148 122.85023715 137.11748059 126.4131086 137.10018158 129.97626495 C137.09434344 131.90259364 137.1032179 133.82894942 137.11256409 135.75526428 C137.03351723 146.53622004 137.03351723 146.53622004 133.70597839 151.14044189 C130.31645648 153.40012317 129.15148174 153.39456257 125.17781067 153.40786743 C123.45335472 153.42066238 123.45335472 153.42066238 121.69406128 153.43371582 C120.43165115 153.43280945 119.16924103 153.43190308 117.86857605 153.43096924 C116.52650579 153.43695319 115.18443898 153.44375843 113.84237671 153.45132446 C110.19562235 153.46900594 106.54896183 153.47368075 102.90216875 153.47495604 C99.85795231 153.47685471 96.81375775 153.48421192 93.76954973 153.49130023 C86.58688968 153.50759015 79.40427978 153.51246865 72.22160339 153.51104736 C64.81260899 153.50984593 57.4039059 153.53094653 49.99498522 153.56253469 C43.63395111 153.58868859 37.27301219 153.59941503 30.91192472 153.59813654 C27.11277047 153.59762662 23.31387502 153.60332619 19.51477432 153.62449265 C15.9408983 153.64386026 12.36752831 153.64401018 8.79363441 153.62945938 C6.85871557 153.62637196 4.92379677 153.64305836 2.98895264 153.66033936 C1.83367569 153.65195038 0.67839874 153.6435614 -0.5118866 153.63491821 C-2.01455613 153.63655252 -2.01455613 153.63655252 -3.54758263 153.63821983 C-7.05288588 153.00290165 -8.73935401 151.57089802 -11.29402161 149.14044189 C-12.61117072 146.50614366 -12.43197759 144.53197264 -12.44792175 141.58067322 C-12.45652222 140.39875397 -12.46512268 139.21683472 -12.47398376 137.99909973 C-12.48037369 136.0439872 -12.48037369 136.0439872 -12.4868927 134.04937744 C-12.49479304 132.66804803 -12.50306195 131.28672068 -12.51167297 129.90539551 C-12.53790009 125.36267063 -12.55320089 120.81993649 -12.56745911 116.27716064 C-12.57281843 114.71401272 -12.57819594 113.15086486 -12.58359146 111.58771706 C-12.60522085 105.0861157 -12.62395809 98.58451684 -12.63521385 92.0828886 C-12.65145671 82.76154586 -12.68464149 73.44061973 -12.7416147 64.11943406 C-12.78029881 57.56735273 -12.79984468 51.01538291 -12.80513442 44.46319038 C-12.80878992 40.54879992 -12.82083147 36.63485373 -12.85323715 32.72058678 C-12.88329162 29.0375178 -12.88963961 25.35516248 -12.87785339 21.67199707 C-12.87752714 19.67738675 -12.9020102 17.68282064 -12.92723083 15.68836975 C-12.85911901 5.94153459 -12.85911901 5.94153459 -9.8825531 2.86048889 C-6.19881668 0.41269184 -4.39504527 0.01334298 0 0 Z " fill="#FEFEFD" transform="translate(236.2940216064453,650.8595581054688)"/>
<path d="M0 0 C1.70554298 -0.0129007 1.70554298 -0.0129007 3.44554138 -0.02606201 C4.70422028 -0.03032196 5.96289917 -0.03458191 7.25971985 -0.03897095 C8.57671371 -0.04714844 9.89370758 -0.05532593 11.25061035 -0.06375122 C15.63163699 -0.09001315 20.01267336 -0.10528646 24.39375305 -0.11953735 C25.90084655 -0.12489598 27.40793998 -0.13027349 28.91503334 -0.13566971 C35.18497609 -0.15730767 41.45491623 -0.17604353 47.72488689 -0.1872921 C56.71400346 -0.20352364 65.70268718 -0.23667105 74.69164056 -0.29369295 C81.00932436 -0.33240331 87.32689248 -0.35192626 93.64469177 -0.35721266 C97.41884893 -0.3608657 101.19254489 -0.37288013 104.96657372 -0.4053154 C108.51995737 -0.4354147 112.07260131 -0.44170192 115.62608528 -0.42993164 C117.54775545 -0.42960605 119.46938007 -0.45406161 121.3908844 -0.47930908 C130.81706176 -0.41119199 130.81706176 -0.41119199 134.51638794 2.56536865 C137.66760061 6.20584194 137.88417265 7.86776785 137.90420532 12.5930481 C137.91493828 14.32589554 137.91493828 14.32589554 137.92588806 16.09375 C137.92857697 17.3675351 137.93126587 18.64132019 137.93403625 19.95370483 C137.94030029 21.30385514 137.94694704 22.65400371 137.95394897 24.00415039 C137.97136565 27.67786537 137.98191283 31.35156733 137.9901545 35.02531338 C137.99530392 37.32059137 138.00137972 39.61586531 138.00766563 41.91114044 C138.02672075 49.09258147 138.04095044 56.27401221 138.0492776 63.45547366 C138.05904814 71.74494842 138.08536128 80.03415601 138.1257785 88.32353663 C138.15594468 94.73041407 138.17074699 101.13721496 138.17405862 107.54416203 C138.17640881 111.37076618 138.18536456 115.19708502 138.21051979 119.02361298 C138.23381424 122.62536153 138.23802858 126.22663724 138.22775841 129.82844162 C138.22702759 131.77631428 138.24610991 133.724163 138.26582336 135.67193604 C138.20177213 146.43207918 138.20177213 146.43207918 133.7570343 151.15390015 C130.38246521 153.40361287 129.25470386 153.40637508 125.30479431 153.41459656 C123.60558083 153.42522377 123.60558083 153.42522377 121.87203979 153.43606567 C120.62833115 153.43358826 119.3846225 153.43111084 118.10322571 153.42855835 C116.79408707 153.43366928 115.48494843 153.43878021 114.13613892 153.44404602 C110.5430919 153.45745017 106.95014999 153.45801303 103.35708284 153.45548272 C100.35760378 153.45441375 97.35814605 153.45929458 94.35867155 153.46408814 C87.281482 153.47518867 80.20434553 153.47561797 73.12715149 153.46957397 C65.82726668 153.46353558 58.52757468 153.47584042 51.22772276 153.49714404 C44.96010758 153.51476237 38.69255375 153.52076096 32.42491472 153.5175063 C28.68170264 153.51569333 24.93862804 153.51833073 21.19543839 153.53222084 C17.02004239 153.54713441 12.8450384 153.53782705 8.66963196 153.5262146 C7.42997177 153.53385834 6.19031158 153.54150208 4.91308594 153.54937744 C3.7746373 153.54236313 2.63618866 153.53534882 1.46324158 153.52812195 C0.47621058 153.52828969 -0.51082043 153.52845743 -1.52776146 153.52863026 C-4.79440527 153.077795 -6.62568592 152.1460973 -9.2429657 150.15390015 C-11.47981744 146.99840187 -11.49982085 144.19418887 -11.51712036 140.3915863 C-11.52709549 139.21533188 -11.53707062 138.03907745 -11.54734802 136.82717896 C-11.5480127 135.54031189 -11.54867737 134.25344482 -11.54936218 132.92758179 C-11.55698538 131.55580698 -11.56541316 130.18403644 -11.57458496 128.81227112 C-11.59651828 125.08914224 -11.605327 121.36609548 -11.61041141 117.64290929 C-11.61405568 115.3164639 -11.62029603 112.99004002 -11.6274128 110.66360283 C-11.65190106 102.54650808 -11.66495831 94.42947721 -11.66850281 86.31234741 C-11.67213995 78.74706721 -11.70204931 71.18219223 -11.74390739 63.61703593 C-11.77859437 57.12010147 -11.79405095 50.62330145 -11.79474884 44.126275 C-11.79554207 40.24658661 -11.80430119 36.36731126 -11.83274651 32.48771858 C-11.8589012 28.83906627 -11.86114783 25.19117029 -11.84509087 21.54246712 C-11.84240882 19.5669798 -11.86447663 17.59150738 -11.88728333 15.6161499 C-11.80735531 5.9639043 -11.80735531 5.9639043 -8.76800537 2.88166809 C-7.93474228 2.31150467 -7.10147919 1.74134125 -6.2429657 1.15390015 C-4.53725365 -0.5518119 -2.33305997 0.0130764 0 0 Z " fill="#FEFDFC" transform="translate(235.2429656982422,215.84609985351563)"/>
<path d="M0 0 C1.84053132 3.68106264 2.37730327 5.72116181 2.875 9.6875 C5.52050664 27.80215233 10.34711124 46.06484039 19.8359375 61.87109375 C20.96225326 63.93096653 21.55070128 65.70648677 22 68 C22.66 68 23.32 68 24 68 C25.04085588 69.64146179 26.03340066 71.31374276 27 73 C36.8628191 86.40556121 48.63518378 96.75149294 63.234375 104.80859375 C63.81703125 105.20175781 64.3996875 105.59492187 65 106 C65 106.66 65 107.32 65 108 C65.71671875 108.11085938 66.4334375 108.22171875 67.171875 108.3359375 C70.21217868 109.04982096 72.48418166 110.18028483 75.25 111.625 C85.62225358 116.57675953 96.92069236 119.09645731 108 122 C108 122.33 108 122.66 108 123 C72.36 123 36.72 123 0 123 C0 82.41 0 41.82 0 0 Z " fill="#030000" transform="translate(0,901)"/>
<path d="M0 0 C36.3 0 72.6 0 110 0 C110 0.33 110 0.66 110 1 C108.79988281 1.18433594 107.59976563 1.36867187 106.36328125 1.55859375 C82.89597286 5.50709929 59.68945338 15.87906958 42 32 C40.96166016 32.93392578 40.96166016 32.93392578 39.90234375 33.88671875 C25.14920776 47.87726719 14.70316164 65.62327459 9 85 C8.45510515 86.46500238 7.89596175 87.92492595 7.3125 89.375 C4.56940196 96.95117553 3.58181419 104.61011249 2.78491211 112.59179688 C2.2158244 117.7841756 2.2158244 117.7841756 0 120 C0 80.4 0 40.8 0 0 Z " fill="#020000" transform="translate(0,0)"/>
<path d="M0 0 C0.33 0 0.66 0 1 0 C1 37.29 1 74.58 1 113 C-35.3 113 -71.6 113 -109 113 C-109 112.67 -109 112.34 -109 112 C-107.07414063 111.5978125 -107.07414063 111.5978125 -105.109375 111.1875 C-69.02530171 103.32518404 -39.21665754 85.89759845 -18.9375 54.4375 C-10.93269907 40.49007678 -6.34845229 25.36220301 -2.53735352 9.83154297 C-2 8 -2 8 -1 7 C-0.63239269 4.67182036 -0.29758419 2.3381615 0 0 Z " fill="#020000" transform="translate(1023,911)"/>
<path d="M0 0 C35.31 0 70.62 0 107 0 C107 37.29 107 74.58 107 113 C106.67 113 106.34 113 106 113 C105.8040625 111.89527344 105.608125 110.79054688 105.40625 109.65234375 C103.59762137 100.0474692 101.15848865 90.85805836 97.9375 81.625 C97.5971875 80.64523193 97.256875 79.66546387 96.90625 78.65600586 C95.27959031 74.11188137 93.54939801 70.11398183 91 66 C91 65.01 91 64.02 91 63 C90.34 63 89.68 63 89 63 C87.5393715 60.35261084 87 59.10551666 87 56 C86.34 56 85.68 56 85 56 C84.48050781 54.9996875 83.96101562 53.999375 83.42578125 52.96875 C80.91583219 48.58213134 77.67960072 45.12282106 74.1875 41.5 C73.59646484 40.87480469 73.00542969 40.24960937 72.39648438 39.60546875 C70.61052249 37.72407379 68.80894327 35.85929354 67 34 C66.392771 33.37230713 65.78554199 32.74461426 65.15991211 32.09790039 C60.49592336 27.34197937 55.57685666 23.64185639 50 20 C49.25234375 19.49597656 48.5046875 18.99195312 47.734375 18.47265625 C36.01211654 10.95685448 23.01062379 6.64597063 9.51220703 3.59741211 C8.70638184 3.4144458 7.90055664 3.23147949 7.0703125 3.04296875 C5.99934326 2.81130005 5.99934326 2.81130005 4.90673828 2.57495117 C3 2 3 2 0 0 Z " fill="#020000" transform="translate(917,0)"/>
<path d="M0 0 C1.47118538 0.00022659 1.47118538 0.00022659 2.97209167 0.00045776 C4.028423 0.01078033 5.08475433 0.02110291 6.1730957 0.03173828 C7.25645706 0.03456818 8.33981842 0.03739807 9.45600891 0.04031372 C12.92041003 0.05151987 16.3845538 0.07662544 19.84887695 0.10205078 C22.19587843 0.11208001 24.54288396 0.12120596 26.88989258 0.12939453 C32.64714203 0.15146062 38.40424111 0.18494251 44.16137695 0.22705078 C44.16137695 0.55705078 44.16137695 0.88705078 44.16137695 1.22705078 C43.56669113 1.23291702 42.97200531 1.23878326 42.35929871 1.24482727 C36.17866941 1.30868201 29.99856466 1.39308071 23.81835938 1.48950195 C21.51081246 1.52278934 19.20318338 1.55080928 16.89550781 1.57348633 C13.58143033 1.60696186 10.2681085 1.65927476 6.9543457 1.71533203 C5.91988815 1.72172195 4.8854306 1.72811188 3.81962585 1.73469543 C2.85885635 1.75448959 1.89808685 1.77428375 0.90820312 1.79467773 C0.06215012 1.80578079 -0.78390289 1.81688385 -1.65559387 1.82832336 C-4.30243085 2.31176467 -5.07431384 3.27060975 -6.83862305 5.22705078 C-7.49862305 5.22705078 -8.15862305 5.22705078 -8.83862305 5.22705078 C-7.22473644 0.38539096 -4.67165399 -0.02401879 0 0 Z " fill="#FEF7EC" transform="translate(234.838623046875,215.77294921875)"/>
<path d="M0 0 C0.33 0.99 0.66 1.98 1 3 C-3.95 7.62 -8.9 12.24 -14 17 C-14.66 16.67 -15.32 16.34 -16 16 C-11.1163329 10.09563077 -5.8280757 4.96906227 0 0 Z " fill="#D94F09" transform="translate(48,26)"/>
<path d="M0 0 C-0.33 0.66 -0.66 1.32 -1 2 C-3.65918166 2.88639389 -5.48064641 3.17989025 -8.23046875 3.31640625 C-9.03291016 3.35830078 -9.83535156 3.40019531 -10.66210938 3.44335938 C-11.49548828 3.48267578 -12.32886719 3.52199219 -13.1875 3.5625 C-14.03248047 3.60568359 -14.87746094 3.64886719 -15.74804688 3.69335938 C-17.83184433 3.79931518 -19.91590103 3.9001502 -22 4 C-22 3.67 -22 3.34 -22 3 C-19.45953542 2.49311395 -16.91791124 1.99433126 -14.375 1.5 C-13.66214844 1.35691406 -12.94929688 1.21382813 -12.21484375 1.06640625 C-8.07855065 0.26950574 -4.23566321 -0.16034056 0 0 Z " fill="#CF4F0F" transform="translate(116,0)"/>
<path d="M0 0 C3.63 0 7.26 0 11 0 C11 0.66 11 1.32 11 2 C12.32 2.33 13.64 2.66 15 3 C11.28233332 4.23922223 9.56110463 3.57018942 5.8125 2.5625 C4.72582031 2.27503906 3.63914062 1.98757812 2.51953125 1.69140625 C1.68808594 1.46324219 0.85664062 1.23507813 0 1 C0 0.67 0 0.34 0 0 Z " fill="#390900" transform="translate(917,0)"/>
<path d="M0 0 C0.66 0.33 1.32 0.66 2 1 C0.35 2.98 -1.3 4.96 -3 7 C-3.66 6.67 -4.32 6.34 -5 6 C-2.25 1.125 -2.25 1.125 0 0 Z " fill="#F74B0F" transform="translate(931,942)"/>
<path d="M0 0 C0.33 0 0.66 0 1 0 C1.08090971 1.62418745 1.13914995 3.24951745 1.1875 4.875 C1.22230469 5.77992188 1.25710938 6.68484375 1.29296875 7.6171875 C1.19628906 8.40351562 1.09960938 9.18984375 1 10 C0.01 10.66 -0.98 11.32 -2 12 C-1.855625 11.319375 -1.71125 10.63875 -1.5625 9.9375 C-0.93054091 6.63726918 -0.45686059 3.32855574 0 0 Z " fill="#2F0A04" transform="translate(1023,911)"/>
</svg>
